<?xml version="1.0" encoding="utf-8"?><svg xmlns="http://www.w3.org/2000/svg" xmlns:xlink="http://www.w3.org/1999/xlink"><symbol viewBox="0 0 22 8" id="arrow-pagination" xmlns="http://www.w3.org/2000/svg"><path d="M.646 4.354a.5.5 0 0 1 0-.708L3.828.464a.5.5 0 1 1 .708.708L1.707 4l2.829 2.828a.5.5 0 1 1-.708.708L.646 4.354ZM22 4.5H1v-1h21v1Z"/></symbol><symbol viewBox="0 0 9 20" id="facebook-icon" xmlns="http://www.w3.org/2000/svg"><path d="M8.638 9.98h-2.67V20H1.924V9.98H0V6.46h1.924V4.18c0-1.63.755-4.181 4.08-4.181L9 .013V3.43H6.826c-.356 0-.858.182-.858.96v2.072h3.023L8.638 9.98Z"/></symbol><symbol viewBox="0 0 18 32" id="icon-arrow" xmlns="http://www.w3.org/2000/svg"><path d="m1.293 31.293 16-16M1.293.707l16 16" stroke="#000" stroke-width="2"/></symbol><symbol viewBox="0 0 57 57" id="icon-building" xmlns="http://www.w3.org/2000/svg"><path d="M33.31 46.177H14.07a.842.842 0 0 1-.843-.842V34.513c0-.465.377-.842.842-.842h19.24c.466 0 .843.377.843.842v10.822a.842.842 0 0 1-.842.842Zm-18.4-1.683h17.557v-9.14H14.911v9.14Z"/><path d="M21.285 57h-4.81a.842.842 0 0 1-.842-.842V45.335c0-.465.377-.841.842-.841h4.81c.465 0 .841.377.841.841v10.823a.842.842 0 0 1-.841.842Zm-3.969-1.684h3.127v-9.139h-3.127v9.14Z"/><path d="M56.158 57H.842a.842.842 0 0 1 0-1.684h55.316a.842.842 0 0 1 0 1.684Zm-4.81-30.063H38.12a.842.842 0 0 1-.842-.842V12.867c0-.465.377-.842.842-.842h13.228c.465 0 .842.377.842.842v13.228a.842.842 0 0 1-.842.842Zm-12.386-1.684h11.544V13.71H38.962v11.544Z"/><path d="M51.348 41.367H38.12a.842.842 0 0 1-.842-.842v-14.43c0-.465.377-.842.842-.842h13.228c.465 0 .842.377.842.842v14.43a.842.842 0 0 1-.842.842Zm-12.386-1.683h11.544V26.937H38.962v12.747Zm-5.652-4.33H20.082a.842.842 0 0 1-.842-.841V.842c0-.465.377-.842.842-.842h19.24c.465 0 .842.377.842.842v7.215a.842.842 0 0 1-.842.842h-5.17v25.614a.842.842 0 0 1-.842.841Zm-12.386-1.683h11.544V8.057c0-.465.377-.842.842-.842h5.17V1.684H20.925V33.67Z"/><path d="M51.348 37.76H38.12a.842.842 0 0 1 0-1.684h13.228a.842.842 0 0 1 0 1.684Zm0-3.608H38.12a.842.842 0 0 1 0-1.684h13.228a.842.842 0 1 1 0 1.684Zm0-3.608H38.12a.842.842 0 0 1 0-1.683h13.228a.842.842 0 0 1 0 1.683Zm-25.253 4.81h-6.013a.842.842 0 0 1-.842-.841V8.057c0-.465.377-.842.842-.842h6.013c.465 0 .841.377.841.842v26.456a.842.842 0 0 1-.841.841Zm-5.171-1.683h4.329V8.899h-4.33V33.67Z"/><path d="M33.31 12.506H20.082a.842.842 0 1 1 0-1.683H33.31a.842.842 0 0 1 0 1.683Zm0 3.608H20.082a.842.842 0 1 1 0-1.684H33.31a.842.842 0 0 1 0 1.684Zm0 3.607H20.082a.842.842 0 0 1 0-1.683H33.31a.842.842 0 1 1 0 1.683Zm0 3.609H20.082a.842.842 0 0 1 0-1.684H33.31a.842.842 0 0 1 0 1.683Zm0 3.607H20.082a.842.842 0 0 1 0-1.684H33.31a.842.842 0 0 1 0 1.684Zm0 3.607H20.082a.842.842 0 0 1 0-1.683H33.31a.842.842 0 0 1 0 1.683Z"/><path d="M56.159 57h-6.013a.842.842 0 0 1-.842-.842v-9.98H33.31a.842.842 0 0 1-.841-.843V8.057c0-.465.377-.842.841-.842h22.85c.465 0 .841.377.841.842v48.101a.842.842 0 0 1-.841.842Zm-5.171-1.684h4.329V8.9H34.152v35.595h15.994c.465 0 .842.377.842.841v9.981Z"/><path d="M50.145 49.785h-28.86a.842.842 0 0 1 0-1.684h28.86a.842.842 0 1 1 0 1.684Zm0 3.607h-28.86a.842.842 0 0 1 0-1.683h28.86a.842.842 0 1 1 0 1.683ZM5.651 57a.842.842 0 0 1-.841-.842V42.93a.84.84 0 0 1 .336-.673l4.81-3.608a.842.842 0 1 1 1.01 1.347l-4.473 3.355v12.807a.842.842 0 0 1-.842.842Z"/><path d="M5.651 47.38a.838.838 0 0 1-.504-.169l-4.81-3.607a.842.842 0 0 1 1.01-1.347l4.81 3.608a.842.842 0 0 1-.506 1.515Zm.001-3.608a.842.842 0 0 1-.799-.575l-1.202-3.608a.842.842 0 1 1 1.597-.532l1.202 3.607a.842.842 0 0 1-.798 1.108Zm-.002 7.215a.842.842 0 0 1-.673-1.347l3.609-4.81a.841.841 0 1 1 1.346 1.01l-3.607 4.81a.84.84 0 0 1-.674.337Zm7.819-36.076H7.456a2.65 2.65 0 0 1-2.634-2.405h-.973a2.649 2.649 0 0 1-2.646-2.645A2.649 2.649 0 0 1 3.85 7.215h3.607a2.65 2.65 0 0 1 2.635 2.405h3.378a2.649 2.649 0 0 1 2.646 2.646 2.649 2.649 0 0 1-2.646 2.645ZM3.849 8.9a.963.963 0 0 0 0 1.924h1.908a.842.842 0 0 1 .794 1.122.958.958 0 0 0 .905 1.283h6.013a.963.963 0 0 0 0-1.924H9.155a.842.842 0 0 1-.793-1.123.958.958 0 0 0-.906-1.282H3.85Zm42.689 18.037a.842.842 0 0 1-.842-.842V12.867a.842.842 0 0 1 1.684 0v13.228a.842.842 0 0 1-.842.842Zm-3.608 0a.842.842 0 0 1-.842-.842V12.867a.842.842 0 0 1 1.683 0v13.228a.842.842 0 0 1-.841.842Z"/></symbol><symbol viewBox="0 0 14 14" id="icon-clock-black" xmlns="http://www.w3.org/2000/svg"><path d="M7 0C3.143 0 0 3.143 0 7s3.143 7 7 7 7-3.143 7-7-3.143-7-7-7Zm0 1.5c3.046 0 5.5 2.454 5.5 5.5s-2.454 5.5-5.5 5.5A5.489 5.489 0 0 1 1.5 7 5.49 5.49 0 0 1 7 1.5Zm0 1a.75.75 0 0 0-.75.75V7c0 .277.151.519.375.648l2.813 1.625a.748.748 0 1 0 .75-1.296L7.75 6.57V3.25A.75.75 0 0 0 7 2.5Z"/></symbol><symbol viewBox="0 0 20 21" id="icon-download" xmlns="http://www.w3.org/2000/svg"><path d="M0 0v9.993a1.001 1.001 0 0 0 2.002 0V2h16.002v7.993a1 1 0 1 0 1.992 0V0H0Zm9.999 5.996a1 1 0 0 0-.78.377L5.22 11.375a1 1 0 0 0 1.564 1.248L9 9.854v9.148a1 1 0 1 0 2 0V9.847l2.222 2.777a1 1 0 1 0 1.557-1.248l-3.994-5.004A1 1 0 0 0 10 5.997v-.001Z"/></symbol><symbol viewBox="0 0 50 60" id="icon-enginer" xmlns="http://www.w3.org/2000/svg"><path d="M49.797 54.871a.93.93 0 0 0 .166-.342c.008-.032.016-.062.021-.094a.978.978 0 0 0 .01-.101c.001-.02.006-.04.006-.06 0-.385-.033-.768-.091-1.148L47.8 27.396c-.003-.042-.004-.084-.01-.124l-.02-.234a.976.976 0 0 0-.271-.596c-.621-1.08-2.1-1.821-3.867-1.821-2.3 0-4.107 1.256-4.175 2.876-.001.007-.004-.045-.004-.038l-.24 3.14H35.11c1.945-3.326 3.04-7.318 3.04-10.553 0-.708-.063-1.381-.181-2.074a2.587 2.587 0 0 0 1.97-2.506 2.595 2.595 0 0 0-1.862-2.485c-.785-5.904-5.578-10.58-11.6-11.31A2.291 2.291 0 0 0 24.272 0h-.124c-1.127 0-2.065 1.03-2.255 2.104-5.372 1.188-9.526 5.213-10.294 11.2h-.27c-1.434 0-2.6.894-2.6 2.328 0 1.434 1.166 2.328 2.6 2.328h.296a12.44 12.44 0 0 0-.172 2.026c0 3.35 1.132 7.287 2.984 10.613H3.774c-.546 0-.777.56-.777 1.107v15.802C1 49.528 0 51.833 0 54.246c0 .547.39.99.937.99.548 0 .964-.444.964-.99 0-5.59 8.622-11.167 12.268-12.025 1.298-.305 2.291-.786 3.064-1.36l1.956 4.06c.17.351.52.56.89.56.112 0 .237-.019.347-.058l3.192-1.139V58.21c0 .547.45.99.998.99a.997.997 0 0 0 .997-.99V43.94l4.117 1.483a.92.92 0 0 0 .324.058c.37 0 .718-.209.888-.56l1.897-3.937c.749.52 1.695.954 2.9 1.238 1.702.4 4.815 1.936 7.632 4.363 2.621 2.258 4.212 4.629 4.57 6.777l.082.994c.002.021.008.04.01.06a.999.999 0 0 0 .047.19.917.917 0 0 0 .08.172.854.854 0 0 0 .11.151l.056.06c.025.024.053.045.08.067.022.016.042.034.065.049.03.02.062.035.095.052.023.012.045.025.07.035.038.016.079.026.12.037.02.005.04-.013.06-.01.063.012.127-.008.193-.008h.001c.028 0 .054.026.081.024.021-.002.039.005.059.003.034-.005.067-.004.1-.012.032-.008.062-.014.092-.025.03-.01.06-.02.09-.034a1.037 1.037 0 0 0 .305-.223c.02-.024.04-.047.06-.073ZM24.283 8.338a.31.31 0 0 1-.31.31h-.045a.31.31 0 0 1-.31-.31V2.305a.31.31 0 0 1 .309-.31h.046a.31.31 0 0 1 .31.31v6.033Zm-2.66-4.397v3.923c0 1.264 1.262 2.78 2.525 2.78h.124c1.263 0 2.007-1.516 2.007-2.78v-4.18c5.321.729 8.982 4.964 9.777 9.62H13.6c.727-4.656 4.031-8.234 8.022-9.363ZM11.33 15.965c-.342 0-.62.008-.62-.333s.278-.332.62-.332h26.008c.341 0 .62-.01.62.332 0 .341-.279.333-.62.333H11.33Zm2.487 24.328c-2.126.5-5.499 2.438-8.825 5.185V32.594h10.672c.015 0 .03.048.046.047a16.677 16.677 0 0 0 2.125 2.372c.099.822.293 4.266-4.018 5.28Zm2.798-9.788c-1.932-3.078-3.18-7.221-3.18-10.462 0-.683.071-1.418.2-2.083H35.97c.13.665.199 1.4.199 2.083 0 6.416-4.773 15.965-11.367 15.965-4.101.001-6.89-3.436-8.187-5.504Zm3.97 12.752-.805-1.666 2.554 1.04-1.75.626Zm8.954 0-1.75-.627 2.554-1.04-.804 1.667ZM25.062 41.6l-6.214-2.529a6.752 6.752 0 0 0 .857-2.562c1.6.988 3.32 1.51 5.097 1.51 1.961 0 3.761-.645 5.363-1.724.085.841.329 1.87.926 2.85l-6.03 2.455Zm13.37-.56a12.595 12.595 0 0 0-2.24-.773c-4.68-1.1-4.128-4.976-4.05-5.422a.921.921 0 0 0 .015-.212c.599-.599 1.158-1.304 1.676-2.008.053.008.106-.032.161-.032h5.07l-.632 8.448Zm5.2-14.438c1.284 0 2.099.566 2.192.923l.007.083c-.026.352-.855.971-2.198.971-1.365 0-2.2-.64-2.2-.99 0-.348.835-.988 2.2-.988Zm-3.301 15.453a.968.968 0 0 0 .028-.164l.737-9.794a.988.988 0 0 0 .082-.392.98.98 0 0 0-.034-.244l.106-1.416c.672.325 1.49.515 2.383.515.9 0 1.722-.193 2.397-.523l1.472 17.96c-1.935-2.465-4.693-4.546-7.171-5.942Z"/><path d="M38.452 49.89h-6.688c-.547 0-.83.589-.83 1.136v5.862c0 .407.168.772.547.921l3.303 1.322a.91.91 0 0 0 .344.069.941.941 0 0 0 .354-.07l3.408-1.32c.38-.15.692-.516.692-.922v-5.862c0-.547-.583-1.136-1.13-1.136Zm-.865 6.324-2.329.93-2.328-.93v-4.329h4.657v4.33ZM12.444 35.92H7.738c-.548 0-.99.45-.99.998s.443.998.99.998h4.706c.547 0 .99-.45.99-.998a.996.996 0 0 0-.99-.998Zm31.462-.004a.997.997 0 0 0-.998.991v4.459c0 .547.45.99.998.99a.997.997 0 0 0 .998-.99v-4.459c0-.547-.45-.99-.998-.99Zm-16.229-4.21a.987.987 0 0 0 .717-.308c5.396-5.658 4.376-9.917 4.33-10.096a.996.996 0 0 0-1.21-.718.985.985 0 0 0-.712 1.2c.002.01.187.857-.178 2.274-.345 1.334-1.26 3.453-3.664 5.973a.991.991 0 0 0 .717 1.675ZM13.54 45.366c-.237.066-5.839 1.692-8.094 7.794a.99.99 0 1 0 1.859.687c1.894-5.126 6.568-6.516 6.77-6.574a.99.99 0 0 0-.534-1.907Z"/></symbol><symbol viewBox="0 0 40 34" id="icon-gallery" xmlns="http://www.w3.org/2000/svg"><path d="M22.346 21.373a3.606 3.606 0 1 0 0-7.21 3.606 3.606 0 0 0 0 7.21Zm0-5.493a1.888 1.888 0 1 1 0 3.776 1.888 1.888 0 0 1 0-3.776Z"/><path fill-rule="evenodd" clip-rule="evenodd" d="M9.57 0H40v24.42h-4.807v4.764H30.43v4.807H0V9.571h4.807V4.807H9.57V0Zm20.86 27.51h3.046V6.525H6.524V9.57h23.905v17.94Zm4.763-4.806h3.09V1.717H11.288v3.09h23.905v17.897Zm-6.438-11.402H1.717v21.03h27.038v-21.03Z"/><path d="M4.149 21.316h1.717v8.441H4.149zm9.871 0h1.717v8.441H14.02zm3.004 0h1.717v8.441h-1.717z"/><path d="M14.02 28.04v1.717H5.58V28.04z"/><path d="M18.598 28.04v1.717h-8.44V28.04zm0-6.724v1.717h-8.44v-1.717z"/><path d="M14.02 21.316v1.717H5.58v-1.717z"/><path d="m9.905 15.52 1.214 1.214-5.756 5.756-1.214-1.214z"/><path d="m9.96 15.47-1.215 1.214 5.807 5.807 1.214-1.215z"/></symbol><symbol viewBox="0 0 40 41" id="icon-garanty" xmlns="http://www.w3.org/2000/svg"><path d="M19.996 8.354c-6.65 0-12.055 5.405-12.055 12.054 0 6.642 5.406 12.055 12.055 12.055 6.65 0 12.055-5.414 12.055-12.055 0-6.65-5.405-12.054-12.055-12.054Zm0 22.062c-5.513 0-10.008-4.485-10.008-10.008 0-5.513 4.486-10.007 10.008-10.007 5.522 0 10.008 4.494 10.008 10.007 0 5.514-4.494 10.008-10.008 10.008Z"/><path d="m39.343 22.063-.726-1.002a1.354 1.354 0 0 1-.008-1.587l.71-1.011a3.42 3.42 0 0 0 .535-2.75 3.401 3.401 0 0 0-1.705-2.22l-1.087-.585a1.357 1.357 0 0 1-.7-1.42l.207-1.22a3.435 3.435 0 0 0-.709-2.707 3.415 3.415 0 0 0-2.498-1.262l-1.237-.05a1.35 1.35 0 0 1-1.244-.977l-.36-1.179a3.421 3.421 0 0 0-3.274-2.455c-.46 0-.92.092-1.346.275l-1.136.484a1.372 1.372 0 0 1-1.545-.342l-.827-.919A3.41 3.41 0 0 0 19.863 0a3.42 3.42 0 0 0-2.574 1.17l-.802.935a1.38 1.38 0 0 1-1.545.368l-1.145-.467a3.466 3.466 0 0 0-1.294-.26 3.409 3.409 0 0 0-3.284 2.507l-.326 1.194c-.15.56-.651.961-1.236.994l-1.228.076c-.97.05-1.88.526-2.481 1.294a3.415 3.415 0 0 0-.67 2.716l.227 1.211a1.358 1.358 0 0 1-.677 1.437l-1.078.601a3.415 3.415 0 0 0-1.67 2.248c-.21.952 0 1.954.576 2.74l.727.994c.342.469.351 1.11.008 1.587l-.71 1.01a3.418 3.418 0 0 0-.535 2.75 3.4 3.4 0 0 0 1.704 2.221l1.087.585c.518.276.793.844.7 1.42l-.208 1.22c-.158.96.1 1.947.71 2.707a3.413 3.413 0 0 0 2.497 1.26l1.237.05a1.35 1.35 0 0 1 1.245.978l.342 1.186a3.421 3.421 0 0 0 3.275 2.457c.46 0 .919-.092 1.345-.276l1.135-.484a1.375 1.375 0 0 1 1.546.343l.828.918a3.42 3.42 0 0 0 2.532 1.136 3.42 3.42 0 0 0 2.574-1.17l.81-.935a1.382 1.382 0 0 1 1.545-.368l1.144.468c.418.167.853.259 1.296.259a3.406 3.406 0 0 0 3.282-2.506l.326-1.195c.15-.56.652-.96 1.237-.994l1.236-.075a3.4 3.4 0 0 0 3.15-4.01l-.226-1.211a1.357 1.357 0 0 1 .677-1.437l1.077-.602a3.416 3.416 0 0 0 1.672-2.247 3.4 3.4 0 0 0-.578-2.74Zm-1.42 2.297a1.35 1.35 0 0 1-.667.895l-1.078.601a3.399 3.399 0 0 0-1.696 3.592l.226 1.211c.075.394-.026.778-.267 1.087-.243.31-.594.493-.994.517l-1.229.076a3.399 3.399 0 0 0-3.09 2.498l-.326 1.186a1.36 1.36 0 0 1-1.311 1.002c-.177 0-.351-.033-.519-.1l-1.145-.467a3.471 3.471 0 0 0-1.294-.26 3.42 3.42 0 0 0-2.573 1.17l-.81.928c-.26.3-.627.467-1.028.467a1.33 1.33 0 0 1-1.01-.45l-.828-.92a3.418 3.418 0 0 0-3.885-.86l-1.136.483a1.362 1.362 0 0 1-1.838-.868l-.342-1.186a3.414 3.414 0 0 0-3.125-2.456l-1.236-.05a1.318 1.318 0 0 1-.995-.502 1.332 1.332 0 0 1-.283-1.077l.208-1.22a3.397 3.397 0 0 0-1.754-3.567l-1.086-.584a1.337 1.337 0 0 1-.685-.886 1.31 1.31 0 0 1 .217-1.094l.71-1.011a3.397 3.397 0 0 0-.033-3.976l-.727-.994a1.314 1.314 0 0 1-.226-1.094 1.35 1.35 0 0 1 .67-.894l1.077-.602a3.4 3.4 0 0 0 1.695-3.592l-.217-1.203a1.335 1.335 0 0 1 .267-1.086c.243-.31.594-.493.994-.517l1.229-.076a3.409 3.409 0 0 0 3.09-2.498l.326-1.194a1.359 1.359 0 0 1 1.83-.903l1.145.467c.418.168.852.26 1.295.26a3.42 3.42 0 0 0 2.572-1.17l.81-.927a1.34 1.34 0 0 1 1.029-.468c.392 0 .752.16 1.01.451l.827.919a3.419 3.419 0 0 0 3.885.86l1.136-.484a1.361 1.361 0 0 1 1.838.868l.342 1.187a3.415 3.415 0 0 0 3.126 2.456l1.236.05c.393.017.752.192 1.002.502.252.308.35.693.285 1.077l-.21 1.22a3.4 3.4 0 0 0 1.755 3.567l1.086.585c.351.183.593.5.685.885.092.384.017.778-.209 1.094l-.709 1.011a3.4 3.4 0 0 0 .033 3.978l.727.993c.198.317.283.709.198 1.093Z"/><path d="m22.962 17.093-4.478 4.452-1.454-1.462a1.026 1.026 0 0 0-1.453 1.446l2.18 2.189a1.023 1.023 0 0 0 1.445 0l5.205-5.172a1.027 1.027 0 0 0 .009-1.445 1.036 1.036 0 0 0-1.454-.008Z"/></symbol><symbol viewBox="0 0 40 40" id="icon-home" xmlns="http://www.w3.org/2000/svg"><path d="M20 0C8.979 0 0 8.979 0 20s8.979 20 20 20 20-8.979 20-20S31.021 0 20 0Zm0 37.85c-9.839 0-17.85-8.011-17.85-17.85 0-9.839 8.011-17.85 17.85-17.85 9.839 0 17.85 8.011 17.85 17.85 0 9.839-8.011 17.85-17.85 17.85Z"/><path d="M32.312 19.409c0-.054 0-.054-.054-.108 0-.054 0-.054-.054-.107 0-.054-.054-.054-.054-.108s-.053-.054-.053-.107c0-.054-.054-.054-.108-.108 0 0 0-.054-.054-.054L20.753 7.42l-.054-.053-.108-.108c-.053 0-.053-.054-.107-.054s-.054-.053-.108-.053c-.053 0-.053 0-.107-.054-.054 0-.054 0-.108-.054h-.43c-.054 0-.054 0-.108.054-.053 0-.053 0-.107.054-.054 0-.054.053-.107.053-.054 0-.054.054-.108.054s-.054.054-.108.108l-.053.053L8.01 18.871s0 .054-.053.054l-.108.107c0 .054-.053.054-.053.108s-.054.054-.054.107c0 .054 0 .054-.054.108 0 .054 0 .054-.054.107v.43c0 .054 0 .054.054.108 0 .054 0 .054.054.108 0 .053.054.107.054.16v.055l.16.16s.055 0 .055.055l.107.107c.054 0 .054.054.108.054.053 0 .053.054.107.054s.054 0 .108.053h3.064v8.656c0 .592.484 1.076 1.075 1.076h5.323c.591 0 1.075-.484 1.075-1.076v-5.268h2.043v5.268c0 .592.484 1.076 1.076 1.076h5.322c.592 0 1.075-.484 1.075-1.076V20.7h3.011c.054 0 .108 0 .108-.054.053 0 .053-.054.107-.054s.054-.053.108-.053l.107-.108s.054 0 .054-.054l.161-.16v-.055c.054-.053.054-.107.054-.161 0-.054 0-.054.054-.108 0-.053 0-.053.054-.107v-.376Zm-4.893-.86c-.591 0-1.075.483-1.075 1.075v8.656h-3.172v-5.27a1.08 1.08 0 0 0-1.075-1.075h-4.194c-.591 0-1.075.484-1.075 1.076v5.269h-3.172v-8.656c0-.592-.484-1.076-1.075-1.076h-1.29L20 9.678l8.656 8.817h-1.237v.053Z"/></symbol><symbol viewBox="0 0 37 40" id="icon-lamp" xmlns="http://www.w3.org/2000/svg"><path d="m36.009 14.848-1.75-2.383a2.858 2.858 0 0 0-3.523-.888l-6.405-9.659a3.734 3.734 0 0 0-.206-.337l-.01-.014A3.66 3.66 0 0 0 19.01.666L2.292 12.41a4.361 4.361 0 0 0-.93 7.007l11.612 11v2.014h-1.081a3.248 3.248 0 0 0-3.244 3.243v1.082A3.247 3.247 0 0 0 11.893 40h12.973a3.247 3.247 0 0 0 3.244-3.243v-1.082a3.248 3.248 0 0 0-3.244-3.243h-1.08v-3.243a5.393 5.393 0 0 0-2.1-4.268l.003-.004-14.55-12.028a4.403 4.403 0 0 0-.932-.587l14.045-9.867a1.498 1.498 0 0 1 2.083.36l.007.01a1.491 1.491 0 0 1-.33 2.055l-10.768 8.069a1.08 1.08 0 1 0 1.297 1.73l7.283-5.458 5.274 6.512a2.852 2.852 0 0 0-.208 3.629l1.75 2.383a1.081 1.081 0 0 0 1.743-1.28l-1.75-2.383a.693.693 0 0 1 .15-.968l4.765-3.498a.693.693 0 0 1 .969.148l1.749 2.384a1.083 1.083 0 0 0 1.511.231 1.078 1.078 0 0 0 .41-1.129 1.083 1.083 0 0 0-.178-.382ZM25.948 35.675v1.082a1.082 1.082 0 0 1-1.082 1.08H11.893a1.082 1.082 0 0 1-1.081-1.08v-1.082a1.083 1.083 0 0 1 1.08-1.08h12.974a1.082 1.082 0 0 1 1.082 1.08Zm-10.812-3.243v-3.243a3.243 3.243 0 1 1 6.487 0v3.243h-6.487Zm1.976-8.493a5.42 5.42 0 0 0-3.913 3.715l-10.35-9.806a2.199 2.199 0 0 1 2.912-3.292l11.351 9.383ZM23.309 6.59a3.7 3.7 0 0 0 .89-.96l4.762 7.183-2.15 1.578-5.255-6.488 1.753-1.313Z"/><path d="M18.38 30.27a1.081 1.081 0 1 0 0-2.163 1.081 1.081 0 0 0 0 2.163Z"/></symbol><symbol viewBox="0 0 11 15" id="icon-map" xmlns="http://www.w3.org/2000/svg"><path d="M5.502 1.5c2.177 0 3.95 1.723 3.958 3.842l-.001.047v.057c.012.465-.009 4.389-3.959 7.652-4.089-3.38-3.967-7.483-3.96-7.659l.003-.04v-.041C1.543 3.23 3.319 1.5 5.502 1.5Zm.003 6.464c1.463 0 2.653-1.16 2.653-2.585 0-1.426-1.19-2.586-2.653-2.586-1.464 0-2.654 1.16-2.654 2.586 0 1.425 1.19 2.585 2.654 2.585ZM5.502 0C2.465 0 .003 2.399.003 5.358c0 0-.313 5.593 5.494 9.639L5.5 15l.001-.001.002.001v-.003C11 11.167 11.014 5.955 11 5.407l.001-.05C11 2.4 8.538 0 5.502 0Zm.003 6.464c-.615 0-1.114-.486-1.114-1.085 0-.6.499-1.086 1.114-1.086a1.1 1.1 0 0 1 1.113 1.086c0 .599-.498 1.085-1.113 1.085Z"/></symbol><symbol viewBox="0 0 40 40" id="icon-medal" xmlns="http://www.w3.org/2000/svg"><path d="M10.712 23.248h2.427v-6.652a6.148 6.148 0 0 0-.923.288 4.062 4.062 0 0 0-.8.43L10.35 15.79a8.02 8.02 0 0 1 1.196-.622 8.03 8.03 0 0 1 1.238-.41c.419-.105.838-.18 1.257-.226.424-.046.846-.068 1.265-.068l-.007.013h.007v8.77h2.318v1.901h-6.912v-1.9Zm8.368-2.283 6.248-6.501h2.167v6.5h2.303v1.9h-2.303v2.284h-2.167v-2.283h-6.262l.014-1.9Zm6.248 0v-3.76l-3.65 3.76h3.65Z"/><path fill-rule="evenodd" clip-rule="evenodd" d="M13.961 8.063c-10.045 3.653-11.732 21.41 3.464 26.16l-.597 1.908c-16.866-5.27-15.547-25.585-3.55-29.947l.683 1.88Zm8.86 26.165c14.212-4.737 14.096-20.655 4.33-26.236l.991-1.737c11.274 6.442 11.158 24.589-4.688 29.87l-.632-1.897Z"/><circle cx="20.092" cy="35.148" r="1"/><path fill-rule="evenodd" clip-rule="evenodd" d="M38 20c0 9.941-8.059 18-18 18S2 29.941 2 20 10.059 2 20 2s18 8.059 18 18Zm2 0c0 11.046-8.954 20-20 20S0 31.046 0 20 8.954 0 20 0s20 8.954 20 20Z"/></symbol><symbol viewBox="0 0 40 39" id="icon-message" xmlns="http://www.w3.org/2000/svg"><path d="M7.012 0h25.976C36.84 0 40 3.16 40 7.012v17.58c0 3.852-3.16 7.013-7.012 7.013H22.222l-12.247 6.42v-6.42H7.012C3.16 31.605 0 28.445 0 24.593V7.013C0 3.16 3.16 0 7.012 0Zm25.976 2.37H7.012A4.637 4.637 0 0 0 2.37 7.012v17.58a4.637 4.637 0 0 0 4.642 4.643h5.334v4.938l9.284-4.938h11.358a4.637 4.637 0 0 0 4.642-4.642V7.013a4.637 4.637 0 0 0-4.642-4.643Z"/><path d="M11.654 11.555c-.592 0-1.086-.493-1.086-1.185 0-.592.494-1.086 1.086-1.086h7.408c.691 0 1.185.494 1.185 1.086 0 .692-.494 1.185-1.185 1.185h-7.408Zm0 5.433c-.592 0-1.086-.494-1.086-1.186 0-.691.494-1.185 1.086-1.185h16.593c.691 0 1.185.494 1.185 1.185 0 .692-.494 1.186-1.185 1.186H11.654Zm0 5.432c-.592 0-1.086-.593-1.086-1.186 0-.69.494-1.185 1.086-1.185h16.593c.691 0 1.185.494 1.185 1.186 0 .592-.494 1.185-1.185 1.185H11.654Z"/></symbol><symbol viewBox="0 0 14 19" id="icon-mobPhone" xmlns="http://www.w3.org/2000/svg"><path d="M11.4 0H1.9C.855 0 0 .855 0 1.9v15.2C0 18.145.855 19 1.9 19h9.5c1.045 0 1.9-.855 1.9-1.9V1.9c0-1.045-.855-1.9-1.9-1.9Zm0 1.9v9.5H1.9V1.9h9.5ZM1.9 17.1v-3.8h9.5v3.8H1.9Z"/><path d="M6.65 16.15a.95.95 0 1 0 0-1.9.95.95 0 0 0 0 1.9Zm1.9-13.3h-3.8v1.9h3.8v-1.9Z"/></symbol><symbol viewBox="0 0 11 15" id="icon-mobphone-black" xmlns="http://www.w3.org/2000/svg"><path d="M9 0H1.5C.675 0 0 .675 0 1.5v12c0 .825.675 1.5 1.5 1.5H9c.825 0 1.5-.675 1.5-1.5v-12C10.5.675 9.825 0 9 0Zm0 1.5V9H1.5V1.5H9Zm-7.5 12v-3H9v3H1.5Z"/><path d="M5.25 12.75a.75.75 0 1 0 0-1.5.75.75 0 0 0 0 1.5Zm1.5-10.5h-3v1.5h3v-1.5Z"/></symbol><symbol viewBox="0 0 13 14" id="icon-phone-black" xmlns="http://www.w3.org/2000/svg"><path d="M7.225 1.325a4.46 4.46 0 0 1 3.152 1.302 4.453 4.453 0 0 1 1.302 3.138c0 .343.274.617.617.617a.614.614 0 0 0 .616-.617 5.66 5.66 0 0 0-1.658-4.029A5.798 5.798 0 0 0 7.225.092a.614.614 0 0 0-.617.616c0 .343.274.617.617.617Z"/><path d="M7.225 3.696c.562 0 1.083.219 1.48.616.398.398.617.919.617 1.48 0 .343.274.617.617.617a.614.614 0 0 0 .616-.617c0-.89-.342-1.726-.973-2.357a3.306 3.306 0 0 0-2.357-.973.614.614 0 0 0-.617.617c0 .343.274.617.617.617Zm5.303 5.755-2.659-1.37a.887.887 0 0 0-1.096.233L7.8 9.561c-.946-.507-1.672-1-2.508-1.836-.89-.891-1.37-1.631-1.864-2.55l1.234-.959a.87.87 0 0 0 .233-1.096L3.538.475a.876.876 0 0 0-1.26-.329L.577 1.27c-.384.26-.603.713-.576 1.179.028.48.096 1.082.206 1.507.493 1.891 1.672 3.851 3.33 5.51 1.658 1.671 3.618 2.85 5.51 3.343.424.11 1.027.165 1.52.206.48.027.932-.206 1.193-.603l1.096-1.713a.866.866 0 0 0-.33-1.248Z"/></symbol><symbol viewBox="0 0 17 14" id="icon-viber-black" xmlns="http://www.w3.org/2000/svg"><path d="M11.096.238c.217.065.433.13.65.217.217.087.434.173.629.282.195.087.411.195.585.325.216.13.39.26.585.39.173.13.347.282.52.455.173.152.325.304.477.477.152.173.281.368.433.542.13.195.26.39.369.585.108.195.216.39.303.607.108.216.195.433.26.65l.195.65c.043.238.087.455.108.672.044.238.066.477.066.693 0 .239 0 .455-.022.672 0 .239-.044.455-.065.694a6.121 6.121 0 0 1-.152.671c-.065.217-.13.434-.217.65-.065.217-.173.434-.26.63-.108.194-.216.41-.346.606a4.39 4.39 0 0 1-.39.563c-.13.174-.282.347-.434.52a5.188 5.188 0 0 1-.498.477 5.256 5.256 0 0 1-.542.434c-.195.13-.39.26-.564.368l-.108.065-.52.26c-.217.087-.433.174-.629.239-.216.086-.433.13-.671.195-.217.043-.434.086-.672.13h-.065a5.741 5.741 0 0 1-.629.043H8.82c-.216-.022-.455-.043-.693-.087-.217-.043-.455-.086-.672-.151a1.788 1.788 0 0 1-.412-.13c-.13-.044-.281-.087-.411-.152a2.354 2.354 0 0 1-.412-.174c-.13-.064-.26-.13-.39-.216a2.133 2.133 0 0 1-.325-.195c-.109-.065-.195-.109-.282-.174l-.043-.043c-.087-.065-.195-.13-.282-.217a1.19 1.19 0 0 1-.195-.151l-3.381.151h-.26l-.347.022H.477L0 12.505l.238-.412.109-.217.151-.26.022-.022.13-.238 1.756-3.034c-.022-.087-.044-.173-.044-.238l-.021-.174-.022-.108v-.065c-.022-.13-.022-.26-.043-.369l.021-.021c-.021-.109-.021-.239-.021-.369 0-.151 0-.303.021-.455 0-.13.022-.282.044-.433l.065-.455c.043-.152.065-.304.108-.434.065-.216.13-.433.217-.65a9.29 9.29 0 0 1 .26-.628c.108-.217.216-.412.346-.607a3.38 3.38 0 0 1 .39-.564c.13-.195.282-.368.434-.52.173-.173.325-.325.498-.477.174-.151.347-.303.542-.433.195-.152.39-.26.585-.368.195-.13.39-.217.607-.326A5.5 5.5 0 0 1 7.022.39c.216-.087.433-.152.671-.195.217-.065.456-.108.672-.13.217-.022.455-.043.694-.043V0c.217 0 .455 0 .672.022.238.021.455.043.693.086.217.022.455.087.672.13Zm-6.35 10.598h.39l.109-.022.086.087.044.043.065.044c.086.086.173.173.26.238.086.087.173.152.26.217.086.065.195.13.303.195.087.087.195.13.282.195.108.043.217.108.325.152.065.043.152.086.217.108h.021l.065.043c.109.044.239.087.325.109.109.043.217.065.347.108.174.043.369.087.542.108.173.044.347.065.542.065.173.022.347.022.542.022.173-.022.346-.022.52-.043.195-.022.368-.065.542-.109.173-.043.346-.086.52-.151a1.99 1.99 0 0 0 .498-.195c.174-.066.325-.152.498-.239.152-.108.304-.195.456-.303a6.512 6.512 0 0 0 .823-.715c.109-.13.239-.26.347-.412.108-.152.217-.304.303-.455.087-.152.174-.304.26-.477.087-.152.152-.325.217-.499.065-.151.108-.325.174-.52.043-.173.086-.346.108-.52.021-.173.043-.368.065-.542a2.273 2.273 0 0 0 0-.541c0-.174 0-.325-.022-.499l-.021-.043a5.768 5.768 0 0 0-.087-.542 4.7 4.7 0 0 0-.152-.52c-.065-.173-.13-.325-.195-.499a2.586 2.586 0 0 0-.26-.476 4.374 4.374 0 0 0-.628-.889 5.742 5.742 0 0 0-.737-.715l-.044-.022-.455-.325c-.152-.086-.303-.173-.476-.26-.152-.065-.326-.152-.499-.217-.152-.043-.325-.108-.52-.151-.173-.065-.368-.087-.52-.13a38.2 38.2 0 0 1-.542-.065h-.542c-.195 0-.368.021-.542.043-.195.022-.368.065-.541.087-.174.043-.347.108-.52.151-.174.065-.347.13-.499.217-.173.065-.325.152-.498.239-.152.086-.304.195-.456.303-.151.108-.281.217-.433.325-.13.13-.26.26-.368.39-.13.13-.26.26-.369.412l-.043.065a5.419 5.419 0 0 0-.26.368c-.087.152-.174.325-.26.477-.087.173-.152.347-.217.499-.065.173-.108.346-.173.52-.022.13-.044.238-.065.346-.022.109-.044.217-.065.347-.022.13-.022.239-.044.347v.347c-.021.108 0 .238 0 .346 0 .109.022.239.022.347.022.109.043.217.065.347l.065.325.022.065v.065l.021.108-.043.087-.022.043-.021.044-.022.021-.195.369-.174.282-.238.433-.65 1.105 2.037-.086.108-.022h.022Z"/><path fill-rule="evenodd" clip-rule="evenodd" d="M7.087 2.752c-1.17.499-1.539 1.56-1.322 2.753.13.715.39 1.43.845 2.297.455.867 1.04 1.69 1.669 2.34 1.69 1.734 4.42 1.43 3.51-.086-.454-.715-.714-1.3-.714-1.3s-.195-.412-.586-.174c-.411.26-.801.542-.997.498-.303-.043-2.687-3.099-1.777-3.575.412-.195 1.127-.434.824-.932l-.997-1.69s-.152-.282-.455-.13Z"/></symbol><symbol viewBox="0 0 20 20" id="instagram-icon" xmlns="http://www.w3.org/2000/svg"><path fill-rule="evenodd" clip-rule="evenodd" d="M10 15.185a5.185 5.185 0 1 0 0-10.37 5.185 5.185 0 0 0 0 10.37ZM6.981 10a2.978 2.978 0 0 1 2.974-2.974A2.977 2.977 0 0 1 12.93 10a2.977 2.977 0 0 1-2.974 2.974A2.978 2.978 0 0 1 6.981 10Z"/><path d="M16.667 4.63a1.296 1.296 0 1 1-2.593 0 1.296 1.296 0 0 1 2.593 0Z"/><path fill-rule="evenodd" clip-rule="evenodd" d="M5.185 0A5.185 5.185 0 0 0 0 5.185v9.63A5.185 5.185 0 0 0 5.185 20h9.63A5.185 5.185 0 0 0 20 14.815v-9.63A5.185 5.185 0 0 0 14.815 0h-9.63Zm-.37 2.222a2.593 2.593 0 0 0-2.593 2.593v10.37a2.593 2.593 0 0 0 2.593 2.593h10.37a2.593 2.593 0 0 0 2.593-2.593V4.815a2.593 2.593 0 0 0-2.593-2.593H4.815Z"/></symbol><symbol viewBox="0 0 182 70" id="logo" xmlns="http://www.w3.org/2000/svg"><path d="M0 56.198v-22.07h15.022v4.136H5.36v5.26h8.34v4.203H5.36v8.47H0Zm84.034 0v-22.07h5.36v8.934h8.107v-8.934h5.327v22.07h-5.327v-8.769h-8.107v8.769h-5.36Zm29.437.496c-2.823 0-4.952-.75-6.386-2.25-1.411-1.522-2.117-3.75-2.117-6.684 0-3.154.717-5.415 2.151-6.783 1.455-1.39 3.573-2.085 6.352-2.085 1.875 0 3.442.32 4.699.96 1.279.618 2.239 1.577 2.879 2.879.661 1.301.992 2.978.992 5.03 0 2.933-.739 5.16-2.217 6.683-1.478 1.5-3.595 2.25-6.353 2.25Zm0-3.938c.817 0 1.489-.187 2.019-.562.551-.397.959-.96 1.224-1.688.287-.75.43-1.665.43-2.746 0-1.235-.143-2.206-.43-2.912-.265-.728-.673-1.246-1.224-1.555-.552-.33-1.224-.496-2.019-.496-.838 0-1.522.165-2.051.496-.529.331-.926.86-1.191 1.588-.243.706-.364 1.666-.364 2.88 0 1.676.287 2.933.86 3.771.596.816 1.511 1.224 2.746 1.224Zm18.189 3.938c-1.544 0-2.912-.243-4.103-.728-1.191-.485-2.118-1.224-2.78-2.217-.661-1.015-.992-2.327-.992-3.937V39.455h4.93v9.96c0 1.058.231 1.852.695 2.382.485.507 1.246.76 2.283.76 1.059 0 1.82-.253 2.283-.76.463-.53.695-1.324.695-2.383v-9.959h4.632v10.357c0 2.382-.684 4.125-2.051 5.228-1.368 1.102-3.232 1.654-5.592 1.654Zm15.208 0c-1.192 0-2.217-.132-3.078-.397a23.196 23.196 0 0 1-2.382-.827v-4.335c.463.309.982.629 1.555.96a9.633 9.633 0 0 0 1.886.76 8.149 8.149 0 0 0 2.217.299c.794 0 1.346-.133 1.654-.398.331-.286.497-.628.497-1.025 0-.375-.166-.673-.497-.894-.33-.242-.761-.44-1.29-.595a26.842 26.842 0 0 0-1.687-.43 8.792 8.792 0 0 1-1.589-.497 5.212 5.212 0 0 1-1.422-.96 4.653 4.653 0 0 1-1.026-1.455c-.243-.596-.364-1.313-.364-2.15 0-1.082.209-1.975.628-2.681a5.057 5.057 0 0 1 1.655-1.754 6.768 6.768 0 0 1 2.217-.926 8.493 8.493 0 0 1 2.316-.265c1.368.044 2.449.199 3.243.463a9.621 9.621 0 0 1 2.217.96v3.871a36.38 36.38 0 0 0-2.25-1.158c-.728-.375-1.567-.562-2.515-.562-.86 0-1.478.132-1.853.397-.375.264-.563.617-.563 1.059 0 .419.122.75.364.992.265.243.607.441 1.026.596.419.132.882.265 1.39.397.551.132 1.114.298 1.687.496a5.733 5.733 0 0 1 1.655.794c.529.331.948.805 1.257 1.423.331.596.496 1.39.496 2.382-.022 1.346-.386 2.427-1.091 3.243-.706.794-1.622 1.368-2.747 1.72-1.103.331-2.305.497-3.606.497Zm17.582 0c-1.676 0-3.165-.342-4.467-1.026a7.667 7.667 0 0 1-3.011-2.978c-.705-1.301-1.058-2.845-1.058-4.632 0-2.912.716-5.162 2.15-6.75 1.456-1.61 3.53-2.416 6.221-2.416 1.853 0 3.342.397 4.467 1.192 1.147.794 1.985 1.952 2.515 3.474.529 1.522.783 3.375.761 5.559h-12.739l-.53-3.144h9.199l-.728 1.556c-.022-1.787-.276-3.045-.761-3.773-.486-.727-1.28-1.092-2.383-1.092a3.18 3.18 0 0 0-1.687.464c-.485.309-.871.827-1.158 1.555-.265.706-.397 1.687-.397 2.945 0 1.588.375 2.812 1.125 3.673.772.86 1.996 1.29 3.673 1.29a8.36 8.36 0 0 0 1.819-.199c.618-.154 1.192-.33 1.721-.529.529-.199.982-.375 1.357-.53v4.236c-.795.33-1.688.595-2.681.794-.97.22-2.106.33-3.408.33Zm-141.094 0c-1.014 0-1.974-.1-2.878-.298-.883-.176-1.666-.474-2.35-.893a4.599 4.599 0 0 1-1.555-1.754c-.375-.75-.562-1.676-.562-2.78 0-1.036.21-1.94.628-2.712.442-.773 1.103-1.368 1.986-1.787.882-.42 1.996-.629 3.342-.629.75 0 1.478.077 2.184.232a8.598 8.598 0 0 1 1.886.628c.573.265 1.025.552 1.356.86l.199 2.383c-.441-.265-.97-.474-1.589-.629a8.165 8.165 0 0 0-1.985-.231c-1.08 0-1.875.165-2.382.496-.485.309-.728.805-.728 1.489 0 .42.121.794.364 1.125.242.33.562.584.96.761.419.177.849.265 1.29.265 1.125 0 1.908-.078 2.35-.232.462-.154.694-.463.694-.926v-6.155c0-1.014-.331-1.742-.993-2.184-.64-.463-1.555-.694-2.746-.694a8.75 8.75 0 0 0-2.945.529c-.97.33-1.765.739-2.382 1.224v-4.367c.573-.353 1.456-.684 2.647-.993 1.213-.309 2.57-.463 4.07-.463.53 0 1.114.044 1.753.132a8.79 8.79 0 0 1 1.92.496c.64.22 1.224.552 1.753.993a4.8 4.8 0 0 1 1.324 1.688c.33.683.496 1.533.496 2.547l-.033 7.908c0 .949-.32 1.721-.96 2.317-.64.573-1.566.992-2.78 1.257-1.19.265-2.635.397-4.334.397Zm18.294 0c-.926 0-1.853-.066-2.78-.199a9.519 9.519 0 0 1-2.48-.628c-.729-.331-1.313-.772-1.755-1.324-.44-.573-.661-1.312-.661-2.217V33.267h4.83V42.4l-.926-1.555a4.086 4.086 0 0 1 1.522-1.092 7.489 7.489 0 0 1 1.886-.596c.64-.11 1.17-.165 1.588-.165 2.471 0 4.346.75 5.625 2.25 1.302 1.478 1.953 3.65 1.953 6.518 0 1.677-.221 3.088-.662 4.235-.441 1.148-1.059 2.063-1.853 2.747a7.359 7.359 0 0 1-2.78 1.489c-1.058.309-2.227.463-3.507.463Zm-.066-4.103c.97 0 1.743-.188 2.316-.563a3.23 3.23 0 0 0 1.224-1.62c.265-.685.398-1.468.398-2.35 0-1.257-.166-2.261-.497-3.011-.33-.75-.783-1.29-1.356-1.621-.574-.331-1.236-.497-1.986-.497-.441 0-.926.055-1.456.166-.53.11-1.003.286-1.422.53v7.41c0 .398.12.707.364.927.242.22.573.386.992.497.441.088.916.132 1.423.132Zm19.399 4.103c-1.676 0-3.165-.342-4.467-1.026a7.664 7.664 0 0 1-3.01-2.978c-.707-1.301-1.06-2.845-1.06-4.632 0-2.912.717-5.162 2.151-6.75 1.456-1.61 3.53-2.416 6.22-2.416 1.854 0 3.343.397 4.468 1.192 1.147.794 1.985 1.952 2.514 3.474.53 1.522.783 3.375.761 5.559H55.821l-.53-3.144h9.2l-.728 1.556c-.023-1.787-.276-3.045-.761-3.773-.486-.727-1.28-1.092-2.383-1.092a3.18 3.18 0 0 0-1.687.464c-.486.309-.872.827-1.159 1.555-.264.706-.397 1.687-.397 2.945 0 1.588.376 2.812 1.126 3.673.771.86 1.996 1.29 3.672 1.29.618 0 1.224-.066 1.82-.199.618-.154 1.191-.33 1.72-.529.53-.199.982-.375 1.357-.53v4.236c-.794.33-1.687.595-2.68.794-.97.22-2.106.33-3.408.33Zm9.755-.496v-14.99c.31-.264.86-.562 1.655-.893a17.684 17.684 0 0 1 2.713-.926 11.62 11.62 0 0 1 3.11-.43c1.037 0 1.853.077 2.449.231.595.155 1.048.353 1.356.596v3.606a9.591 9.591 0 0 0-1.422-.198 23.318 23.318 0 0 0-1.787-.066 23.18 23.18 0 0 0-1.754 0 10.62 10.62 0 0 0-1.39.132v12.938h-4.93Z"/><path d="M75.645 58.955h-4.99v10.504H182V23.503L126.328 0 70.655 23.503v12.868h4.99v-9.585l50.683-21.403 50.683 21.403V64.47H75.645v-5.515Z"/></symbol><symbol viewBox="0 0 10 10" id="marker-dot" xmlns="http://www.w3.org/2000/svg"><circle cx="5" cy="5" r="3.5" stroke="#000" stroke-width="3"/></symbol><symbol viewBox="0 0 40 40" id="pagination-home" xmlns="http://www.w3.org/2000/svg"><path d="M20 0C8.979 0 0 8.979 0 20s8.979 20 20 20 20-8.979 20-20S31.021 0 20 0Zm0 37.85c-9.839 0-17.85-8.011-17.85-17.85 0-9.839 8.011-17.85 17.85-17.85 9.839 0 17.85 8.011 17.85 17.85 0 9.839-8.011 17.85-17.85 17.85Z"/><path d="M32.312 19.409c0-.054 0-.054-.054-.108 0-.054 0-.054-.054-.107 0-.054-.054-.054-.054-.108s-.053-.054-.053-.107c0-.054-.054-.054-.108-.108 0 0 0-.054-.054-.054L20.753 7.42l-.054-.053-.108-.108c-.053 0-.053-.054-.107-.054s-.054-.053-.108-.053c-.053 0-.053 0-.107-.054-.054 0-.054 0-.108-.054h-.43c-.054 0-.054 0-.108.054-.053 0-.053 0-.107.054-.054 0-.054.053-.107.053-.054 0-.054.054-.108.054s-.054.054-.108.108l-.053.053L8.01 18.871s0 .054-.053.054l-.108.107c0 .054-.053.054-.053.108s-.054.054-.054.107c0 .054 0 .054-.054.108 0 .054 0 .054-.054.107v.43c0 .054 0 .054.054.108 0 .054 0 .054.054.108 0 .053.054.107.054.16v.055l.16.16s.055 0 .055.055l.107.107c.054 0 .054.054.108.054.053 0 .053.054.107.054s.054 0 .108.053h3.064v8.656c0 .592.484 1.076 1.075 1.076h5.323c.591 0 1.075-.484 1.075-1.076v-5.268h2.043v5.268c0 .592.484 1.076 1.076 1.076h5.322c.592 0 1.075-.484 1.075-1.076V20.7h3.011c.054 0 .108 0 .108-.054.053 0 .053-.054.107-.054s.054-.053.108-.053l.107-.108s.054 0 .054-.054l.161-.16v-.055c.054-.053.054-.107.054-.161 0-.054 0-.054.054-.108 0-.053 0-.053.054-.107v-.376Zm-4.893-.86c-.591 0-1.075.483-1.075 1.075v8.656h-3.172v-5.27a1.08 1.08 0 0 0-1.075-1.075h-4.194c-.591 0-1.075.484-1.075 1.076v5.269h-3.172v-8.656c0-.592-.484-1.076-1.075-1.076h-1.29L20 9.678l8.656 8.817h-1.237v.053Z"/></symbol><symbol viewBox="0 0 61 56" id="project-form-icon" xmlns="http://www.w3.org/2000/svg"><path d="M52.759 56h-44.5C3.722 56 .026 52.348 0 47.802V21.66c0-4.555 3.705-8.268 8.233-8.268a.92.92 0 0 1 .92.92l-.01 7.768h12.752l4.152-11.736a4.634 4.634 0 0 1 2.452-3.941v-5.08a.92.92 0 0 1 .92-.92h2.364c.508 0 .91.412.91.92v4.984a4.638 4.638 0 0 1 2.637 4.037l4.151 11.736h12.367v-7.768c0-.508.403-.92.91-.92 4.529 0 8.216 3.67 8.233 8.198L61 47.758c-.105 4.676-3.565 8.136-8.241 8.241ZM30.872 5.851V2.234h-.543v3.617h.543Zm-.254 1.83a2.821 2.821 0 0 0-2.75 2.82 2.83 2.83 0 0 0 2.82 2.82c1.56 0 2.82-1.27 2.82-2.82 0-1.62-1.296-2.82-2.89-2.82Zm-9.502 22.071c.762.096 1.401.447 1.927 1.007a1.94 1.94 0 0 1 .92-.044c1.838-5.246 3.669-10.492 5.5-15.738a4.667 4.667 0 0 1-2.514-1.725l-5.833 16.5Zm2.75 2.803c.017.122.026.236.026.359a3.204 3.204 0 0 1-1.594 2.758l-2.811 7.26c-.36.93-1.76.675-1.76-.323l.026-8.443a3.138 3.138 0 0 1-.254-1.252c0-1.121.586-2.155 1.532-2.724l2.225-6.288H9.143v16.377c-.026.57-.245 1.06-.91 1.06a6.416 6.416 0 0 0 0 12.83h44.5c3.555 0 6.437-2.855 6.437-6.41a6.416 6.416 0 0 0-6.411-6.42.905.905 0 0 1-.911-.91V23.901H40.13l4.536 12.856c.062.158.07.316.035.473l-1.06 5.544c-.175.92-1.462.999-1.76.114-1.305-3.354-2.584-6.717-3.906-10.063-.114-.263-.272-.368-.753-.149a.905.905 0 0 1-1.2-.464l-2.908-8.311h-4.843l-2.908 8.311c-.332.753-.937.534-1.497.342Zm-3.67 3.52a3.701 3.701 0 0 1-.63-.166v1.795l.63-1.629Zm.5-4.528a1.37 1.37 0 1 0 0 2.742 1.37 1.37 0 0 0 1.366-1.375c0-.736-.587-1.367-1.367-1.367Zm13.732-18.295a4.604 4.604 0 0 1-2.514 1.725l5.492 15.712c1.2-.28 1.743.307 2.233 1.393.946 2.408 1.874 4.825 2.811 7.243l.42-2.199-8.442-23.874Zm-3.74 3.73L28.91 22.08h3.565l-1.787-5.097ZM7.322 39.57V15.284a6.42 6.42 0 0 0-5.5 6.35V42.59a8.228 8.228 0 0 1 5.5-3.021Zm46.348 0a8.228 8.228 0 0 1 5.5 3.021V21.66c0-3.206-2.321-5.92-5.5-6.376V39.57Z"/></symbol><symbol viewBox="0 0 19 19" id="score-icon" xmlns="http://www.w3.org/2000/svg"><path d="M11.049 2.28a5.76 5.76 0 1 1-.002 11.518 5.76 5.76 0 0 1 .002-11.519Zm0-2.28a8.04 8.04 0 0 0-3.13 15.444A8.04 8.04 0 0 0 14.176.634 7.99 7.99 0 0 0 11.05 0Z"/><path d="M4.934 12.425.791 16.568a1.118 1.118 0 0 0 0 1.582l.03.03a1.118 1.118 0 0 0 1.582 0l4.143-4.143a1.118 1.118 0 0 0 0-1.582l-.03-.03a1.118 1.118 0 0 0-1.582 0Z"/></symbol><symbol viewBox="0 0 39 22" id="tringle-decor" xmlns="http://www.w3.org/2000/svg"><path d="m19.5 0 19.486 21.75H.014L19.5 0Z"/></symbol><symbol viewBox="0 0 23 13" id="vk-icon" xmlns="http://www.w3.org/2000/svg"><path fill-rule="evenodd" clip-rule="evenodd" d="M11.253 12.946h1.375s.415-.046.627-.272c.195-.208.189-.598.189-.598s-.027-1.828.83-2.097c.843-.265 1.927 1.766 3.076 2.547.868.592 1.528.462 1.528.462l3.072-.042s1.607-.098.845-1.35c-.063-.103-.444-.926-2.284-2.618-1.926-1.771-1.668-1.485.652-4.548 1.413-1.866 1.978-3.005 1.802-3.493-.169-.465-1.208-.342-1.208-.342L18.3.616s-.257-.034-.447.078c-.186.11-.305.368-.305.368S17 2.506 16.27 3.734c-1.54 2.59-2.156 2.727-2.408 2.567-.585-.375-.44-1.507-.44-2.31 0-2.511.385-3.558-.748-3.829-.376-.09-.652-.15-1.614-.159-1.234-.013-2.278.004-2.87.29-.393.192-.696.617-.512.641.229.03.747.139 1.021.509.355.478.342 1.55.342 1.55s.204 2.956-.475 3.323c-.467.252-1.106-.262-2.479-2.612-.704-1.205-1.235-2.535-1.235-2.535S4.75.919 4.567.787a1.445 1.445 0 0 0-.531-.213L.75.596S.256.609.075.822c-.161.189-.013.58-.013.58s2.573 5.964 5.486 8.97c2.672 2.755 5.705 2.574 5.705 2.574Z"/></symbol></svg>