<svg width="43" height="53" viewBox="0 0 43 53" fill="none" xmlns="http://www.w3.org/2000/svg">
<path d="M11.7129 24.2481H14.1396V17.5967C13.8206 17.6697 13.513 17.7654 13.2168 17.8839C12.9251 18.0023 12.6585 18.1459 12.417 18.3145L11.3506 16.7901C11.7425 16.544 12.1413 16.3366 12.5469 16.168C12.957 15.9949 13.3695 15.8581 13.7842 15.7579C14.2035 15.6531 14.6227 15.5779 15.042 15.5323C15.4658 15.4867 15.8874 15.4639 16.3066 15.4639L16.2998 15.4776H16.3066V24.2481H18.624V26.1485H11.7129V24.2481ZM20.0801 21.9649L26.3281 15.4639H28.4951V21.9649H30.7988V23.8653H28.4951V26.1485H26.3281V23.8653H20.0664L20.0801 21.9649ZM26.3281 21.9649V18.2051L22.6777 21.9649H26.3281Z" fill="black"/>
<circle cx="21.0918" cy="21.1485" r="19" stroke="black" stroke-width="2"/>
<path d="M28.5921 8.14843C39.0921 14.1484 39.0921 31.1484 24.0921 36.1484M18.0921 36.1484C2.09201 31.1485 3.59206 12.1485 14.592 8.14845" stroke="black" stroke-width="2"/>
<circle cx="21.0918" cy="36.1485" r="1" fill="black"/>
</svg>
