<svg width="36" height="40" fill="none" xmlns="http://www.w3.org/2000/svg"><path d="M.047 30.9a.641.641 0 00.062.11c.02.037.044.073.072.106a.66.66 0 00.11.087c.025.022.05.042.078.06l17.333 8.667c.006.003.013.001.018.004a.625.625 0 00.56 0c.005-.003.012-.001.018-.004l17.334-8.667a.629.629 0 00.077-.06.662.662 0 00.11-.087c.05-.068.095-.14.134-.215a.657.657 0 00.028-.142.632.632 0 00.019-.092V9.333a.62.62 0 00-.019-.092.658.658 0 00-.028-.142 1.598 1.598 0 00-.134-.215.661.661 0 00-.11-.087.628.628 0 00-.078-.06L18.299.07c-.006-.003-.013-.001-.018-.004a.626.626 0 00-.56 0c-.005.003-.012.001-.018.004L.369 8.737a.625.625 0 00-.077.06.659.659 0 00-.111.087.641.641 0 00-.072.106.642.642 0 00-.062.11.656.656 0 00-.028.14.626.626 0 00-.019.093v21.334c.004.03.01.062.019.092a.655.655 0 00.028.142zM18 19.413l4.176 2.088-3.843 1.921-4.175-2.088L18 19.413zm0 15.843L13.49 33l4.843-2.421 4.51 2.254L18 35.255zm-1.157-5.422L12 32.255l-4.176-2.088 4.843-2.422 4.176 2.088zM14.158 27l4.175-2.088L22.51 27l-4.176 2.088L14.158 27zm10.175 5.088l-4.509-2.255L24 27.745 28.51 30l-4.177 2.088zM30 29.255L25.49 27l3.843-1.921 4.51 2.254L30 29.255zm-6-3l-4.176-2.088 3.843-1.922 4.175 2.088L24 26.255zm-11.333-4.176l4.176 2.088-4.176 2.088-4.176-2.088 4.176-2.088zM7 24.912L11.176 27l-4.843 2.421-4.175-2.088L7 24.913zm-5.667 3.5l16 8v1.843l-16-8v-1.843zm17.334 8l16-8v1.843l-16 8v-1.843zm16-10.157l-16-8V1.745l16 8v16.51zm-17.334-8l-16 8V9.745l16-8v16.51z" fill="#000"/></svg>