<svg width="40" height="40" fill="none" xmlns="http://www.w3.org/2000/svg"><path d="M39.978 25.878a.66.66 0 00-.025-.112c-.006-.015-.011-.03-.018-.044-.003-.007-.002-.014-.005-.02a.628.628 0 00-.048-.06.64.64 0 00-.063-.092.65.65 0 00-.036-.036.637.637 0 00-.091-.063.64.64 0 00-.06-.047L34 22.588V7.333a.66.66 0 00-.032-.194c-.005-.016-.012-.03-.018-.044a.662.662 0 00-.094-.167c-.01-.013-.017-.025-.027-.037a.66.66 0 00-.145-.125c-.011-.007-.024-.01-.035-.016-.007-.003-.01-.01-.017-.013L20.298.07a.667.667 0 00-.596 0L6.368 6.737c-.006.003-.01.01-.017.013l-.035.016a.659.659 0 00-.103.084c-.007.006-.015.01-.021.017l-.021.024c-.01.012-.017.025-.027.037a.66.66 0 00-.097.171l-.015.04A.66.66 0 006 7.333v15.255L.368 25.404a.625.625 0 00-.06.046.642.642 0 00-.092.064.675.675 0 00-.035.036.641.641 0 00-.063.09.634.634 0 00-.048.062c-.003.006-.002.013-.005.02-.007.014-.012.029-.018.044a.655.655 0 00-.025.113.66.66 0 00-.018.101c0 .007-.004.013-.004.02v3.667c.004.031.01.062.019.092a.655.655 0 00.028.142.64.64 0 00.062.108.59.59 0 00.072.107.66.66 0 00.11.087c.025.022.05.042.077.06l19.334 9.667c.006.003.013.001.018.004a.625.625 0 00.56 0c.005-.003.012-.001.018-.004l19.334-9.667a.629.629 0 00.077-.06.662.662 0 00.11-.087c.05-.068.095-.14.134-.215a.657.657 0 00.028-.142.632.632 0 00.019-.092V26c0-.007-.004-.013-.004-.02a.67.67 0 00-.018-.102zm-38.645 1.2l18 9v2.177l-18-9v-2.176zm19.334 9l18-9v2.177l-18 9v-2.176zm12-27.666v17.176L30 26.92V9.745l2.667-1.333zM20 1.412l11.843 5.921-2.51 1.255-9.035-4.518c-.006-.003-.012-.001-.018-.004a.626.626 0 00-.56 0c-.005.003-.012.001-.018.004l-9.035 4.518-2.51-1.255L20 1.413zm.667 21.51V5.744l8 4V26.92l-8-4zM11.333 9.744l8-4V22.92l-8 4V9.745zm-4-1.333L10 9.745v17.176l-2.667-1.333V8.412zm-1.286 17.82c.007.02.016.039.025.058a.66.66 0 00.105.155c.01.011.017.024.028.034a.662.662 0 00.163.118l4 2c.012.006.026.004.039.01a.651.651 0 00.203.047c.019.002.037.014.057.014.007 0 .015-.003.022-.004.02 0 .04-.005.06-.008a.66.66 0 00.178-.048c.012-.006.026-.005.038-.01L20 24.078l9.035 4.517a.646.646 0 00.08.03c.017.005.033.013.05.017a.681.681 0 00.168.024h.001a.665.665 0 00.269-.064c.009-.004.02-.002.028-.007l4-2A.667.667 0 0034 26v-1.921L37.843 26 20 34.921 2.158 26 6 24.079V26c.002.08.017.157.047.231z" fill="#000"/></svg>