<svg width="11" height="15" fill="none" xmlns="http://www.w3.org/2000/svg"><path d="M5.502 1.5c2.177 0 3.95 1.723 3.958 3.842l-.001.047v.057c.012.465-.009 4.389-3.959 7.652-4.089-3.38-3.967-7.483-3.96-7.659l.003-.04v-.041C1.543 3.23 3.319 1.5 5.502 1.5zm.003 6.464c1.463 0 2.653-1.16 2.653-2.585 0-1.426-1.19-2.586-2.653-2.586-1.464 0-2.654 1.16-2.654 2.586 0 1.425 1.19 2.585 2.654 2.585zM5.502 0C2.465 0 .003 2.399.003 5.358c0 0-.313 5.593 5.494 9.639L5.5 15l.001-.001.002.001v-.003C11 11.167 11.014 5.955 11 5.407l.001-.05C11 2.4 8.538 0 5.502 0zm.003 6.464c-.615 0-1.114-.486-1.114-1.085 0-.6.499-1.086 1.114-1.086a1.1 1.1 0 011.113 1.086c0 .599-.498 1.085-1.113 1.085z" fill="#000"/></svg>