<svg width="13" height="14" fill="none" xmlns="http://www.w3.org/2000/svg"><path d="M7.225 1.325a4.46 4.46 0 013.152 1.302 4.453 4.453 0 011.302 3.138c0 .343.274.617.617.617a.614.614 0 00.616-.617 5.66 5.66 0 00-1.658-4.029A5.798 5.798 0 007.225.092a.614.614 0 00-.617.616c0 .343.274.617.617.617z" fill="#000"/><path d="M7.225 3.696c.562 0 1.083.219 1.48.616.398.398.617.919.617 1.48 0 .343.274.617.617.617a.614.614 0 00.616-.617c0-.89-.342-1.726-.973-2.357a3.306 3.306 0 00-2.357-.973.614.614 0 00-.617.617c0 .343.274.617.617.617zm5.303 5.755l-2.659-1.37a.887.887 0 00-1.096.233L7.8 9.561c-.946-.507-1.672-1-2.508-1.836-.89-.891-1.37-1.631-1.864-2.55l1.234-.959a.87.87 0 00.233-1.096L3.538.475a.876.876 0 00-1.26-.329L.577 1.27c-.384.26-.603.713-.576 1.179.028.48.096 1.082.206 1.507.493 1.891 1.672 3.851 3.33 5.51 1.658 1.671 3.618 2.85 5.51 3.343.424.11 1.027.165 1.52.206.48.027.932-.206 1.193-.603l1.096-1.713a.866.866 0 00-.33-1.248z" fill="#000"/></svg>