<svg width="40" height="34" fill="none" xmlns="http://www.w3.org/2000/svg"><g fill="#000"><path d="M22.346 21.373a3.606 3.606 0 100-7.21 3.606 3.606 0 000 7.21zm0-5.493a1.888 1.888 0 110 3.776 1.888 1.888 0 010-3.776z"/><path fill-rule="evenodd" clip-rule="evenodd" d="M9.57 0H40v24.42h-4.807v4.764H30.43v4.807H0V9.571h4.807V4.807H9.57V0zm20.86 27.51h3.046V6.525H6.524V9.57h23.905v17.94zm4.763-4.806h3.09V1.717H11.288v3.09h23.905v17.897zm-6.438-11.402H1.717v21.03h27.038v-21.03z"/><path d="M4.149 21.316h1.717v8.441H4.149zm9.871 0h1.717v8.441H14.02zm3.004 0h1.717v8.441h-1.717z"/><path d="M14.02 28.04v1.717H5.58V28.04z"/><path d="M18.598 28.04v1.717h-8.44V28.04zm0-6.724v1.717h-8.44v-1.717z"/><path d="M14.02 21.316v1.717H5.58v-1.717z"/><path d="M9.905 15.52l1.214 1.214-5.756 5.756-1.214-1.214z"/><path d="M9.96 15.47l-1.215 1.214 5.807 5.807 1.214-1.215z"/></g></svg>