<svg width="40" height="40" fill="none" xmlns="http://www.w3.org/2000/svg"><g fill="#000"><path d="M39.333 33.333h-2V.667c0-.4-.266-.667-.666-.667H3.333c-.4 0-.666.267-.666.667v32.666h-2c-.4 0-.667.267-.667.667v2.667c0 .4.267.666.667.666h2v2c0 .4.266.667.666.667H6c.4 0 .667-.267.667-.667v-2h26.666v2c0 .4.267.667.667.667h2.667c.4 0 .666-.267.666-.667v-2h2c.4 0 .667-.266.667-.666V34c0-.4-.267-.667-.667-.667zM4 1.333h32v32h-1.333v-30c0-.4-.267-.666-.667-.666H6c-.4 0-.667.266-.667.666v30H4v-32zm16.667 32V20.667h12.666v12.666H20.667zm-14 0V20.667h12.666v12.666H6.667zM33.333 4v15.333H20.667V4h12.666zm-14 15.333H6.667V4h12.666v15.333zm-14 19.334H4v-1.334h1.333v1.334zm30.667 0h-1.333v-1.334H36v1.334zM38.667 36H1.333v-1.333h37.334V36z"/><path d="M10.536 12.8c.133 0 .4 0 .4-.133l4.4-4.4a.644.644 0 000-.934.644.644 0 00-.934 0l-4.4 4.4c-.133.134-.133.267-.133.4 0 .4.267.667.667.667zm.664 3.333c0 .4.266.667.666.667.133 0 .4 0 .533-.133l4.4-4.4a.644.644 0 000-.934.645.645 0 00-.933 0l-4.4 4.4c-.267.134-.267.267-.267.4zM28.666 22a.645.645 0 00-.933 0l-4.4 4.4c-.134.133-.134.267-.134.4 0 .4.267.667.667.667.133 0 .4 0 .533-.134l4.4-4.4c.134-.266.134-.666-.133-.933zm.401 4l-4.4 4.4c-.134.133-.134.267-.134.4 0 .4.267.667.667.667.133 0 .4 0 .533-.134l4.4-4.4a.644.644 0 000-.933c-.4-.267-.8-.267-1.066 0z"/></g></svg>