<svg width="40" height="30" fill="none" xmlns="http://www.w3.org/2000/svg"><path d="M27.779 6.934h7.887A4.333 4.333 0 0140 11.268v11.787a3.034 3.034 0 01-3.034 3.034h-.693a4.506 4.506 0 01-8.84 0H12.827a4.507 4.507 0 01-8.841 0h-.953A3.034 3.034 0 010 23.055v-4.55a3.034 3.034 0 013.034-3.034h.736V8.537a.867.867 0 01.867-.866h2.904V.867A.867.867 0 018.407 0h7.801a.867.867 0 01.867.867v6.847h3.077a.867.867 0 01.866.867v6.934h1.56v-3.38a5.2 5.2 0 015.201-5.201zm7.93 1.733h-2.34v4.074a1.3 1.3 0 001.3 1.3h3.598v-2.773a2.6 2.6 0 00-2.6-2.6h.043zm-3.856 19.329a2.773 2.773 0 100-5.547 2.773 2.773 0 000 5.547zm0-7.28a4.507 4.507 0 014.42 3.64h.693a1.3 1.3 0 001.3-1.3v-1.084h-1.863v-1.734h1.864v-.433h-1.864v-1.733h1.864v-2.297h-3.64a3.034 3.034 0 01-3.034-3.034V8.667h-3.857a3.467 3.467 0 00-3.467 3.467v12.221h3.163a4.507 4.507 0 014.42-3.64zm-23.446 7.28a2.773 2.773 0 100-5.547 2.773 2.773 0 000 5.547zM5.46 15.47h6.068V9.404H5.46v6.067zm9.881-13.738H9.274v5.981h6.067v-5.98zm3.944 7.714h-5.98v6.068h5.98V9.447zM3.034 17.248a1.3 1.3 0 00-1.3 1.3v4.507a1.3 1.3 0 001.3 1.3h.953a4.507 4.507 0 018.84 0h9.751v-7.15l-19.544.043z" fill="#000"/></svg>