<svg width="37" height="40" fill="none" xmlns="http://www.w3.org/2000/svg"><g fill="#000"><path d="M36.009 14.848l-1.75-2.383a2.858 2.858 0 00-3.523-.888l-6.405-9.659a3.734 3.734 0 00-.206-.337l-.01-.014A3.66 3.66 0 0019.01.666L2.292 12.41a4.361 4.361 0 00-.93 7.007l11.612 11v2.014h-1.081a3.248 3.248 0 00-3.244 3.243v1.082A3.247 3.247 0 0011.893 40h12.973a3.247 3.247 0 003.244-3.243v-1.082a3.248 3.248 0 00-3.244-3.243h-1.08v-3.243a5.393 5.393 0 00-2.1-4.268l.003-.004-14.55-12.028a4.403 4.403 0 00-.932-.587l14.045-9.867a1.498 1.498 0 012.083.36l.007.01a1.491 1.491 0 01-.33 2.055l-10.768 8.069a1.08 1.08 0 101.297 1.73l7.283-5.458 5.274 6.512a2.852 2.852 0 00-.208 3.629l1.75 2.383a1.081 1.081 0 001.743-1.28l-1.75-2.383a.693.693 0 01.15-.968l4.765-3.498a.693.693 0 01.969.148l1.749 2.384a1.083 1.083 0 001.511.231 1.078 1.078 0 00.41-1.129 1.083 1.083 0 00-.178-.382zM25.948 35.675v1.082a1.082 1.082 0 01-1.082 1.08H11.893a1.082 1.082 0 01-1.081-1.08v-1.082a1.083 1.083 0 011.08-1.08h12.974a1.082 1.082 0 011.082 1.08zm-10.812-3.243v-3.243a3.243 3.243 0 116.487 0v3.243h-6.487zm1.976-8.493a5.42 5.42 0 00-3.913 3.715l-10.35-9.806a2.199 2.199 0 012.912-3.292l11.351 9.383zM23.309 6.59a3.7 3.7 0 00.89-.96l4.762 7.183-2.15 1.578-5.255-6.488 1.753-1.313z"/><path d="M18.38 30.27a1.081 1.081 0 100-2.163 1.081 1.081 0 000 2.163z"/></g></svg>