<svg width="40" height="40" fill="none" xmlns="http://www.w3.org/2000/svg"><path d="M38.298 40H.85a.851.851 0 01-.85-.851V10.213c0-.47.381-.851.851-.851h10.213c.47 0 .85.38.85.85v5.107h5.958c.47 0 .851.381.851.851v5.107h5.958c.47 0 .85.38.85.85v4.256h5.958c.47 0 .851.381.851.851v4.255h5.958c.47 0 .85.381.85.851v6.809a.85.85 0 01-.85.851zM1.702 38.298h35.745V33.19h-5.958a.851.851 0 01-.85-.85v-4.256H24.68a.851.851 0 01-.851-.851v-4.255h-5.958a.851.851 0 01-.85-.851V17.02h-5.958a.851.851 0 01-.851-.85v-5.107h-8.51v27.234zm36.596-17.021h-1.702a.852.852 0 01-.518-.176L10.775 1.702h-6.52a.851.851 0 110-1.702h6.809a.85.85 0 01.518.176l25.303 19.398h1.413a.851.851 0 010 1.703z" fill="#000"/><path d="M31.49 28.085a.851.851 0 01-.851-.851V17.021a.851.851 0 011.702 0v10.213c0 .47-.381.851-.851.851zm-6.809-5.106a.851.851 0 01-.85-.851V11.915a.851.851 0 011.701 0v10.213c0 .47-.38.85-.85.85zm-6.809-5.958a.851.851 0 01-.85-.85V6.807a.851.851 0 111.702 0v9.362c0 .47-.381.851-.852.851zm-6.808-5.957a.851.851 0 01-.851-.851V.85a.851.851 0 111.702 0v9.362a.85.85 0 01-.851.85zM24.68 33.191H.852a.851.851 0 010-1.702h23.83a.851.851 0 010 1.702z" fill="#000"/></svg>