<svg width="50" height="60" fill="none" xmlns="http://www.w3.org/2000/svg"><path d="M49.797 54.871a.93.93 0 00.166-.342c.008-.032.016-.062.021-.094a.978.978 0 00.01-.101c.001-.02.006-.04.006-.06 0-.385-.033-.768-.091-1.148L47.8 27.396c-.003-.042-.004-.084-.01-.124l-.02-.234a.976.976 0 00-.271-.596c-.621-1.08-2.1-1.821-3.867-1.821-2.3 0-4.107 1.256-4.175 2.876-.001.007-.004-.045-.004-.038l-.24 3.14H35.11c1.945-3.326 3.04-7.318 3.04-10.553 0-.708-.063-1.381-.181-2.074a2.587 2.587 0 001.97-2.506 2.595 2.595 0 00-1.862-2.485c-.785-5.904-5.578-10.58-11.6-11.31A2.291 2.291 0 0024.272 0h-.124c-1.127 0-2.065 1.03-2.255 2.104-5.372 1.188-9.526 5.213-10.294 11.2h-.27c-1.434 0-2.6.894-2.6 2.328 0 1.434 1.166 2.328 2.6 2.328h.296a12.44 12.44 0 00-.172 2.026c0 3.35 1.132 7.287 2.984 10.613H3.774c-.546 0-.777.56-.777 1.107v15.802C1 49.528 0 51.833 0 54.246c0 .547.39.99.937.99.548 0 .964-.444.964-.99 0-5.59 8.622-11.167 12.268-12.025 1.298-.305 2.291-.786 3.064-1.36l1.956 4.06c.17.351.52.56.89.56.112 0 .237-.019.347-.058l3.192-1.139V58.21c0 .547.45.99.998.99a.997.997 0 00.997-.99V43.94l4.117 1.483a.92.92 0 00.324.058c.37 0 .718-.209.888-.56l1.897-3.937c.749.52 1.695.954 2.9 1.238 1.702.4 4.815 1.936 7.632 4.363 2.621 2.258 4.212 4.629 4.57 6.777l.082.994c.002.021.008.04.01.06a.999.999 0 00.047.19.917.917 0 00.08.172.854.854 0 00.11.151l.056.06c.025.024.053.045.08.067.022.016.042.034.065.049.03.02.062.035.095.052.023.012.045.025.07.035.038.016.079.026.12.037.02.005.04-.013.06-.01.063.012.127-.008.193-.008h.001c.028 0 .054.026.081.024.021-.002.039.005.059.003.034-.005.067-.004.1-.012.032-.008.062-.014.092-.025.03-.01.06-.02.09-.034a1.037 1.037 0 00.305-.223c.02-.024.04-.047.06-.073zM24.283 8.338a.31.31 0 01-.31.31h-.045a.31.31 0 01-.31-.31V2.305a.31.31 0 01.309-.31h.046a.31.31 0 01.31.31v6.033zm-2.66-4.397v3.923c0 1.264 1.262 2.78 2.525 2.78h.124c1.263 0 2.007-1.516 2.007-2.78v-4.18c5.321.729 8.982 4.964 9.777 9.62H13.6c.727-4.656 4.031-8.234 8.022-9.363zM11.33 15.965c-.342 0-.62.008-.62-.333s.278-.332.62-.332h26.008c.341 0 .62-.01.62.332 0 .341-.279.333-.62.333H11.33zm2.487 24.328c-2.126.5-5.499 2.438-8.825 5.185V32.594h10.672c.015 0 .03.048.046.047a16.677 16.677 0 002.125 2.372c.099.822.293 4.266-4.018 5.28zm2.798-9.788c-1.932-3.078-3.18-7.221-3.18-10.462 0-.683.071-1.418.2-2.083H35.97c.13.665.199 1.4.199 2.083 0 6.416-4.773 15.965-11.367 15.965-4.101.001-6.89-3.436-8.187-5.504zm3.97 12.752l-.805-1.666 2.554 1.04-1.75.626zm8.954 0l-1.75-.627 2.554-1.04-.804 1.667zM25.062 41.6l-6.214-2.529a6.752 6.752 0 00.857-2.562c1.6.988 3.32 1.51 5.097 1.51 1.961 0 3.761-.645 5.363-1.724.085.841.329 1.87.926 2.85l-6.03 2.455zm13.37-.56a12.595 12.595 0 00-2.24-.773c-4.68-1.1-4.128-4.976-4.05-5.422a.921.921 0 00.015-.212c.599-.599 1.158-1.304 1.676-2.008.053.008.106-.032.161-.032h5.07l-.632 8.448zm5.2-14.438c1.284 0 2.099.566 2.192.923l.007.083c-.026.352-.855.971-2.198.971-1.365 0-2.2-.64-2.2-.99 0-.348.835-.988 2.2-.988zm-3.301 15.453a.968.968 0 00.028-.164l.737-9.794a.988.988 0 00.082-.392.98.98 0 00-.034-.244l.106-1.416c.672.325 1.49.515 2.383.515.9 0 1.722-.193 2.397-.523l1.472 17.96c-1.935-2.465-4.693-4.546-7.171-5.942z" fill="#000"/><path d="M38.452 49.89h-6.688c-.547 0-.83.589-.83 1.136v5.862c0 .407.168.772.547.921l3.303 1.322a.91.91 0 00.344.069.941.941 0 00.354-.07l3.408-1.32c.38-.15.692-.516.692-.922v-5.862c0-.547-.583-1.136-1.13-1.136zm-.865 6.324l-2.329.93-2.328-.93v-4.329h4.657v4.33zM12.444 35.92H7.738c-.548 0-.99.45-.99.998s.443.998.99.998h4.706c.547 0 .99-.45.99-.998a.996.996 0 00-.99-.998zm31.462-.004a.997.997 0 00-.998.991v4.459c0 .547.45.99.998.99a.997.997 0 00.998-.99v-4.459c0-.547-.45-.99-.998-.99zm-16.229-4.21a.987.987 0 00.717-.308c5.396-5.658 4.376-9.917 4.33-10.096a.996.996 0 00-1.21-.718.985.985 0 00-.712 1.2c.002.01.187.857-.178 2.274-.345 1.334-1.26 3.453-3.664 5.973a.991.991 0 00.717 1.675zM13.54 45.366c-.237.066-5.839 1.692-8.094 7.794a.99.99 0 101.859.687c1.894-5.126 6.568-6.516 6.77-6.574a.99.99 0 00-.534-1.907z" fill="#000"/></svg>