<svg width="17" height="14" fill="none" xmlns="http://www.w3.org/2000/svg"><g fill="#000"><path d="M11.096.238c.217.065.433.13.65.217.217.087.434.173.629.282.195.087.411.195.585.325.216.13.39.26.585.39.173.13.347.282.52.455.173.152.325.304.477.477.152.173.281.368.433.542.13.195.26.39.369.585.108.195.216.39.303.607.108.216.195.433.26.65l.195.65c.043.238.087.455.108.672.044.238.066.477.066.693 0 .239 0 .455-.022.672 0 .239-.044.455-.065.694a6.121 6.121 0 01-.152.671c-.065.217-.13.434-.217.65-.065.217-.173.434-.26.63-.108.194-.216.41-.346.606a4.39 4.39 0 01-.39.563c-.13.174-.282.347-.434.52a5.188 5.188 0 01-.498.477 5.256 5.256 0 01-.542.434c-.195.13-.39.26-.564.368l-.108.065-.52.26c-.217.087-.433.174-.629.239-.216.086-.433.13-.671.195-.217.043-.434.086-.672.13h-.065a5.741 5.741 0 01-.629.043H8.82c-.216-.022-.455-.043-.693-.087-.217-.043-.455-.086-.672-.151a1.788 1.788 0 01-.412-.13c-.13-.044-.281-.087-.411-.152a2.354 2.354 0 01-.412-.174c-.13-.064-.26-.13-.39-.216a2.133 2.133 0 01-.325-.195c-.109-.065-.195-.109-.282-.174l-.043-.043c-.087-.065-.195-.13-.282-.217a1.19 1.19 0 01-.195-.151l-3.381.151h-.26l-.347.022H.477L0 12.505l.238-.412.109-.217.151-.26.022-.022.13-.238 1.756-3.034c-.022-.087-.044-.173-.044-.238l-.021-.174-.022-.108v-.065c-.022-.13-.022-.26-.043-.369l.021-.021c-.021-.109-.021-.239-.021-.369 0-.151 0-.303.021-.455 0-.13.022-.282.044-.433l.065-.455c.043-.152.065-.304.108-.434.065-.216.13-.433.217-.65a9.29 9.29 0 01.26-.628c.108-.217.216-.412.346-.607a3.38 3.38 0 01.39-.564c.13-.195.282-.368.434-.52.173-.173.325-.325.498-.477.174-.151.347-.303.542-.433.195-.152.39-.26.585-.368.195-.13.39-.217.607-.326A5.5 5.5 0 017.022.39c.216-.087.433-.152.671-.195.217-.065.456-.108.672-.13.217-.022.455-.043.694-.043V0c.217 0 .455 0 .672.022.238.021.455.043.693.086.217.022.455.087.672.13zm-6.35 10.598h.39l.109-.022.086.087.044.043.065.044c.086.086.173.173.26.238.086.087.173.152.26.217.086.065.195.13.303.195.087.087.195.13.282.195.108.043.217.108.325.152.065.043.152.086.217.108h.021l.065.043c.109.044.239.087.325.109.109.043.217.065.347.108.174.043.369.087.542.108.173.044.347.065.542.065.173.022.347.022.542.022.173-.022.346-.022.52-.043.195-.022.368-.065.542-.109.173-.043.346-.086.52-.151a1.99 1.99 0 00.498-.195c.174-.066.325-.152.498-.239.152-.108.304-.195.456-.303a6.512 6.512 0 00.823-.715c.109-.13.239-.26.347-.412.108-.152.217-.304.303-.455.087-.152.174-.304.26-.477.087-.152.152-.325.217-.499.065-.151.108-.325.174-.52.043-.173.086-.346.108-.52.021-.173.043-.368.065-.542a2.273 2.273 0 000-.541c0-.174 0-.325-.022-.499l-.021-.043a5.768 5.768 0 00-.087-.542 4.7 4.7 0 00-.152-.52c-.065-.173-.13-.325-.195-.499a2.586 2.586 0 00-.26-.476 4.374 4.374 0 00-.628-.889 5.742 5.742 0 00-.737-.715l-.044-.022-.455-.325c-.152-.086-.303-.173-.476-.26-.152-.065-.326-.152-.499-.217-.152-.043-.325-.108-.52-.151-.173-.065-.368-.087-.52-.13a38.2 38.2 0 01-.542-.065h-.542c-.195 0-.368.021-.542.043-.195.022-.368.065-.541.087-.174.043-.347.108-.52.151-.174.065-.347.13-.499.217-.173.065-.325.152-.498.239-.152.086-.304.195-.456.303-.151.108-.281.217-.433.325-.13.13-.26.26-.368.39-.13.13-.26.26-.369.412l-.043.065a5.419 5.419 0 00-.26.368c-.087.152-.174.325-.26.477-.087.173-.152.347-.217.499-.065.173-.108.346-.173.52-.022.13-.044.238-.065.346-.022.109-.044.217-.065.347-.022.13-.022.239-.044.347v.347c-.021.108 0 .238 0 .346 0 .109.022.239.022.347.022.109.043.217.065.347l.065.325.022.065v.065l.021.108-.043.087-.022.043-.021.044-.022.021-.195.369-.174.282-.238.433-.65 1.105 2.037-.086.108-.022h.022z"/><path fill-rule="evenodd" clip-rule="evenodd" d="M7.087 2.752c-1.17.499-1.539 1.56-1.322 2.753.13.715.39 1.43.845 2.297.455.867 1.04 1.69 1.669 2.34 1.69 1.734 4.42 1.43 3.51-.086-.454-.715-.714-1.3-.714-1.3s-.195-.412-.586-.174c-.411.26-.801.542-.997.498-.303-.043-2.687-3.099-1.777-3.575.412-.195 1.127-.434.824-.932l-.997-1.69s-.152-.282-.455-.13z"/></g></svg>