<svg width="34" height="40" fill="none" xmlns="http://www.w3.org/2000/svg"><path d="M32 22V12l2-4-2-8h-8l-2 8 2 4v10c-1.106 0-2 .894-2 2v14c0 1.106.894 2 2 2h8c1.106 0 2-.894 2-2V24c0-1.106-.894-2-2-2zM25.562 2h4.876l1.443 5.77L30 11.527V22h-4V11.527L24.12 7.77 25.561 2zM32 38h-8V24h8v14zm-6-4c0-1.106.894-2 2-2 1.106 0 2 .894 2 2 0 1.106-.894 2-2 2-1.106 0-2-.894-2-2zM14 .844V10l-4 2-4-2V.844C2.472 2.39 0 5.902 0 10c0 3.262 1.585 6.129 4 7.957V38a2 2 0 002 2h8a2 2 0 002-2V17.957c2.415-1.828 4-4.695 4-7.957 0-4.098-2.472-7.61-6-9.156zm0 16.117V38H6V16.96S2 14.688 2 10c0-1.98.736-3.848 2-5.281v6.52l6 3 6-3v-6.52c1.264 1.433 2 3.3 2 5.281 0 4.764-4 6.96-4 6.96zM12 34a2 2 0 11-3.999.001A2 2 0 0112 34z" fill="#000"/></svg>