<svg width="40" height="41" fill="none" xmlns="http://www.w3.org/2000/svg"><g fill="#000"><path d="M19.996 8.354c-6.65 0-12.055 5.405-12.055 12.054 0 6.642 5.406 12.055 12.055 12.055 6.65 0 12.055-5.414 12.055-12.055 0-6.65-5.405-12.054-12.055-12.054zm0 22.062c-5.513 0-10.008-4.485-10.008-10.008 0-5.513 4.486-10.007 10.008-10.007 5.522 0 10.008 4.494 10.008 10.007 0 5.514-4.494 10.008-10.008 10.008z"/><path d="M39.343 22.063l-.726-1.002a1.354 1.354 0 01-.008-1.587l.71-1.011a3.42 3.42 0 00.535-2.75 3.401 3.401 0 00-1.705-2.22l-1.087-.585a1.357 1.357 0 01-.7-1.42l.207-1.22a3.435 3.435 0 00-.709-2.707 3.415 3.415 0 00-2.498-1.262l-1.237-.05a1.35 1.35 0 01-1.244-.977l-.36-1.179a3.421 3.421 0 00-3.274-2.455c-.46 0-.92.092-1.346.275l-1.136.484a1.372 1.372 0 01-1.545-.342l-.827-.919A3.41 3.41 0 0019.863 0a3.42 3.42 0 00-2.574 1.17l-.802.935a1.38 1.38 0 01-1.545.368l-1.145-.467a3.466 3.466 0 00-1.294-.26 3.409 3.409 0 00-3.284 2.507l-.326 1.194c-.15.56-.651.961-1.236.994l-1.228.076c-.97.05-1.88.526-2.481 1.294a3.415 3.415 0 00-.67 2.716l.227 1.211a1.358 1.358 0 01-.677 1.437l-1.078.601a3.415 3.415 0 00-1.67 2.248c-.21.952 0 1.954.576 2.74l.727.994c.342.469.351 1.11.008 1.587l-.71 1.01a3.418 3.418 0 00-.535 2.75 3.4 3.4 0 001.704 2.221l1.087.585c.518.276.793.844.7 1.42l-.208 1.22c-.158.96.1 1.947.71 2.707a3.413 3.413 0 002.497 1.26l1.237.05a1.35 1.35 0 011.245.978l.342 1.186a3.421 3.421 0 003.275 2.457c.46 0 .919-.092 1.345-.276l1.135-.484a1.375 1.375 0 011.546.343l.828.918a3.42 3.42 0 002.532 1.136 3.42 3.42 0 002.574-1.17l.81-.935a1.382 1.382 0 011.545-.368l1.144.468c.418.167.853.259 1.296.259a3.406 3.406 0 003.282-2.506l.326-1.195c.15-.56.652-.96 1.237-.994l1.236-.075a3.4 3.4 0 003.15-4.01l-.226-1.211a1.357 1.357 0 01.677-1.437l1.077-.602a3.416 3.416 0 001.672-2.247 3.4 3.4 0 00-.578-2.74zm-1.42 2.297a1.35 1.35 0 01-.667.895l-1.078.601a3.399 3.399 0 00-1.696 3.592l.226 1.211c.075.394-.026.778-.267 1.087-.243.31-.594.493-.994.517l-1.229.076a3.399 3.399 0 00-3.09 2.498l-.326 1.186a1.36 1.36 0 01-1.311 1.002c-.177 0-.351-.033-.519-.1l-1.145-.467a3.471 3.471 0 00-1.294-.26 3.42 3.42 0 00-2.573 1.17l-.81.928c-.26.3-.627.467-1.028.467a1.33 1.33 0 01-1.01-.45l-.828-.92a3.418 3.418 0 00-3.885-.86l-1.136.483a1.362 1.362 0 01-1.838-.868l-.342-1.186a3.414 3.414 0 00-3.125-2.456l-1.236-.05a1.318 1.318 0 01-.995-.502 1.332 1.332 0 01-.283-1.077l.208-1.22a3.397 3.397 0 00-1.754-3.567l-1.086-.584a1.337 1.337 0 01-.685-.886 1.31 1.31 0 01.217-1.094l.71-1.011a3.397 3.397 0 00-.033-3.976l-.727-.994a1.314 1.314 0 01-.226-1.094 1.35 1.35 0 01.67-.894l1.077-.602a3.4 3.4 0 001.695-3.592l-.217-1.203a1.335 1.335 0 01.267-1.086c.243-.31.594-.493.994-.517l1.229-.076a3.409 3.409 0 003.09-2.498l.326-1.194a1.359 1.359 0 011.83-.903l1.145.467c.418.168.852.26 1.295.26a3.42 3.42 0 002.572-1.17l.81-.927a1.34 1.34 0 011.029-.468c.392 0 .752.16 1.01.451l.827.919a3.419 3.419 0 003.885.86l1.136-.484a1.361 1.361 0 011.838.868l.342 1.187a3.415 3.415 0 003.126 2.456l1.236.05c.393.017.752.192 1.002.502.252.308.35.693.285 1.077l-.21 1.22a3.4 3.4 0 001.755 3.567l1.086.585c.351.183.593.5.685.885.092.384.017.778-.209 1.094l-.709 1.011a3.4 3.4 0 00.033 3.978l.727.993c.198.317.283.709.198 1.093z"/><path d="M22.962 17.093l-4.478 4.452-1.454-1.462a1.026 1.026 0 00-1.453 1.446l2.18 2.189a1.023 1.023 0 001.445 0l5.205-5.172a1.027 1.027 0 00.009-1.445 1.036 1.036 0 00-1.454-.008z"/></g></svg>