<svg width="57" height="57" fill="none" xmlns="http://www.w3.org/2000/svg"><path d="M33.31 46.177H14.07a.842.842 0 01-.843-.842V34.513c0-.465.377-.842.842-.842h19.24c.466 0 .843.377.843.842v10.822a.842.842 0 01-.842.842zm-18.4-1.683h17.557v-9.14H14.911v9.14z" fill="#000"/><path d="M21.285 57h-4.81a.842.842 0 01-.842-.842V45.335c0-.465.377-.841.842-.841h4.81c.465 0 .841.377.841.841v10.823a.842.842 0 01-.841.842zm-3.969-1.684h3.127v-9.139h-3.127v9.14z" fill="#000"/><path d="M56.158 57H.842a.842.842 0 010-1.684h55.316a.842.842 0 010 1.684zm-4.81-30.063H38.12a.842.842 0 01-.842-.842V12.867c0-.465.377-.842.842-.842h13.228c.465 0 .842.377.842.842v13.228a.842.842 0 01-.842.842zm-12.386-1.684h11.544V13.71H38.962v11.544z" fill="#000"/><path d="M51.348 41.367H38.12a.842.842 0 01-.842-.842v-14.43c0-.465.377-.842.842-.842h13.228c.465 0 .842.377.842.842v14.43a.842.842 0 01-.842.842zm-12.386-1.683h11.544V26.937H38.962v12.747zm-5.652-4.33H20.082a.842.842 0 01-.842-.841V.842c0-.465.377-.842.842-.842h19.24c.465 0 .842.377.842.842v7.215a.842.842 0 01-.842.842h-5.17v25.614a.842.842 0 01-.842.841zm-12.386-1.683h11.544V8.057c0-.465.377-.842.842-.842h5.17V1.684H20.925V33.67z" fill="#000"/><path d="M51.348 37.76H38.12a.842.842 0 010-1.684h13.228a.842.842 0 010 1.684zm0-3.608H38.12a.842.842 0 010-1.684h13.228a.842.842 0 110 1.684zm0-3.608H38.12a.842.842 0 010-1.683h13.228a.842.842 0 010 1.683zm-25.253 4.81h-6.013a.842.842 0 01-.842-.841V8.057c0-.465.377-.842.842-.842h6.013c.465 0 .841.377.841.842v26.456a.842.842 0 01-.841.841zm-5.171-1.683h4.329V8.899h-4.33V33.67z" fill="#000"/><path d="M33.31 12.506H20.082a.842.842 0 110-1.683H33.31a.842.842 0 010 1.683zm0 3.608H20.082a.842.842 0 110-1.684H33.31a.842.842 0 010 1.684zm0 3.607H20.082a.842.842 0 010-1.683H33.31a.842.842 0 110 1.683zm0 3.609H20.082a.842.842 0 010-1.684H33.31a.842.842 0 010 1.683zm0 3.607H20.082a.842.842 0 010-1.684H33.31a.842.842 0 010 1.684zm0 3.607H20.082a.842.842 0 010-1.683H33.31a.842.842 0 010 1.683z" fill="#000"/><path d="M56.159 57h-6.013a.842.842 0 01-.842-.842v-9.98H33.31a.842.842 0 01-.841-.843V8.057c0-.465.377-.842.841-.842h22.85c.465 0 .841.377.841.842v48.101a.842.842 0 01-.841.842zm-5.171-1.684h4.329V8.9H34.152v35.595h15.994c.465 0 .842.377.842.841v9.981z" fill="#000"/><path d="M50.145 49.785h-28.86a.842.842 0 010-1.684h28.86a.842.842 0 110 1.684zm0 3.607h-28.86a.842.842 0 010-1.683h28.86a.842.842 0 110 1.683zM5.651 57a.842.842 0 01-.841-.842V42.93a.84.84 0 01.336-.673l4.81-3.608a.842.842 0 111.01 1.347l-4.473 3.355v12.807a.842.842 0 01-.842.842z" fill="#000"/><path d="M5.651 47.38a.838.838 0 01-.504-.169l-4.81-3.607a.842.842 0 011.01-1.347l4.81 3.608a.842.842 0 01-.506 1.515zm.001-3.608a.842.842 0 01-.799-.575l-1.202-3.608a.842.842 0 111.597-.532l1.202 3.607a.842.842 0 01-.798 1.108zm-.002 7.215a.842.842 0 01-.673-1.347l3.609-4.81a.841.841 0 111.346 1.01l-3.607 4.81a.84.84 0 01-.674.337zm7.819-36.076H7.456a2.65 2.65 0 01-2.634-2.405h-.973a2.649 2.649 0 01-2.646-2.645A2.649 2.649 0 013.85 7.215h3.607a2.65 2.65 0 012.635 2.405h3.378a2.649 2.649 0 012.646 2.646 2.649 2.649 0 01-2.646 2.645zM3.849 8.9a.963.963 0 000 1.924h1.908a.842.842 0 01.794 1.122.958.958 0 00.905 1.283h6.013a.963.963 0 000-1.924H9.155a.842.842 0 01-.793-1.123.958.958 0 00-.906-1.282H3.85zm42.689 18.037a.842.842 0 01-.842-.842V12.867a.842.842 0 011.684 0v13.228a.842.842 0 01-.842.842zm-3.608 0a.842.842 0 01-.842-.842V12.867a.842.842 0 011.683 0v13.228a.842.842 0 01-.841.842z" fill="#000"/></svg>