<svg width="43" height="53" fill="none" xmlns="http://www.w3.org/2000/svg"><path d="M11.713 24.248h2.427v-6.651a6.209 6.209 0 00-.923.287 4.056 4.056 0 00-.8.43l-1.066-1.524c.391-.246.79-.453 1.196-.622a8.03 8.03 0 011.237-.41c.42-.105.839-.18 1.258-.226a11.97 11.97 0 011.265-.068l-.007.014h.007v8.77h2.317v1.9h-6.911v-1.9zm8.367-2.283l6.248-6.501h2.167v6.5H30.8v1.901h-2.304v2.284h-2.167v-2.284h-6.262l.014-1.9zm6.248 0v-3.76l-3.65 3.76h3.65z" fill="#000"/><circle cx="21.092" cy="21.148" r="19" stroke="#000" stroke-width="2"/><path d="M28.592 8.148c10.5 6 10.5 23-4.5 28m-6 0c-16-5-14.5-24-3.5-28" stroke="#000" stroke-width="2"/><circle cx="21.092" cy="36.148" r="1" fill="#000"/></svg>