<svg width="28" height="40" fill="none" xmlns="http://www.w3.org/2000/svg"><path d="M26.361 40H.851C.34 40 0 39.66 0 39.15V.884c0-.51.34-.85.85-.85h25.511c.51 0 .85.34.85.85V39.15c0 .51-.34.85-.85.85zm-24.66-1.7h23.81V1.733H1.7v36.565z" fill="#000"/><path d="M26.36 40h-.254L7.398 34.898c-.34-.085-.595-.425-.595-.85V5.985c0-.425.255-.68.595-.85L26.106.032c.255-.085.51 0 .765.17s.34.426.34.68V39.15c0 .255-.085.51-.34.68-.17.085-.34.17-.51.17zM8.504 33.452l17.008 4.592V1.99L8.503 6.581v26.871z" fill="#000"/><path d="M13.607 19.166h-3.402v1.701h3.402v-1.7z" fill="#000"/></svg>