<svg width="40" height="40" fill="none" xmlns="http://www.w3.org/2000/svg"><path d="M39.588.051A.666.666 0 0039.333 0H.665a.661.661 0 00-.252.05L.41.052A.668.668 0 00.052.41L.05.413A.661.661 0 000 .665v38.668A.67.67 0 00.667 40h16a.67.67 0 00.666-.667v-22h22a.67.67 0 00.667-.666v-16a.67.67 0 00-.412-.616zM16.943 16l-6.667-6.667h20.781L37.724 16H16.943zM8.667 32.276l6.39 6.39H2.276l6.39-6.39zm.666-1.219V10.276L16 16.943v20.781l-6.667-6.667zm22.943-22.39l6.39-6.391v12.781l-6.39-6.39zm-15.61-7.334h21.058L31.057 8H8.943L2.276 1.333h14.39zm-15.333.943L8 8.943v22.114l-6.667 6.667V2.276z" fill="#000"/></svg>