<svg width="36" height="40" fill="none" xmlns="http://www.w3.org/2000/svg"><path d="M.047 30.9a.641.641 0 00.062.11c.02.037.044.073.072.106a.62.62 0 00.11.087c.025.022.05.042.078.06l17.333 8.667c.006.003.013.001.018.004a.625.625 0 00.56 0c.005-.003.012-.001.018-.004l17.334-8.667a.629.629 0 00.077-.06.653.653 0 00.11-.087c.05-.068.095-.14.134-.215a.657.657 0 00.028-.142.621.621 0 00.019-.092V9.333c0-.007-.004-.013-.004-.02a.66.66 0 00-.018-.101.659.659 0 00-.025-.113c-.006-.015-.011-.03-.018-.044-.003-.006-.002-.013-.005-.02a.607.607 0 00-.047-.06.63.63 0 00-.064-.091.597.597 0 00-.036-.037.64.64 0 00-.09-.062.623.623 0 00-.061-.048L18.298.07a.667.667 0 00-.596 0L.369 8.737a.628.628 0 00-.062.048.64.64 0 00-.09.062.638.638 0 00-.036.037.64.64 0 00-.063.09.626.626 0 00-.048.061c-.003.007-.002.014-.005.02L.047 9.1a.653.653 0 00-.025.113.66.66 0 00-.018.101c0 .007-.004.013-.004.02v21.334c.004.03.01.062.019.092a.655.655 0 00.028.142zM7 6.913L11.176 9l-4.843 2.421-4.175-2.088L7 6.913zm5.667-2.833l4.176 2.088-4.176 2.088L8.49 6.167l4.176-2.088zm15.176 2.254L24 8.255l-4.176-2.088 3.843-1.922 4.175 2.088zm6 3L30 11.254 25.49 9l3.843-1.921 4.51 2.254zM18 35.255L13.49 33l4.843-2.421 4.51 2.254L18 35.255zm-.298-13.325c.006.003.013.001.018.004a.625.625 0 00.56 0c.005-.003.012-.001.018-.004l2.369-1.185 1.509.755-3.843 1.921-4.175-2.088 1.175-.588 2.369 1.185zm16.965 4.325L22.157 20l12.51-6.255v12.51zm-22-4.176l4.176 2.088-4.176 2.088-4.176-2.088 4.176-2.088zm5.666 2.833L22.51 27l-4.176 2.088L14.158 27l4.175-2.088zm1.491-.745l3.843-1.922 4.175 2.088L24 26.255l-4.176-2.088zm-18.49 2.088v-12.51L13.841 20 1.333 26.255zM7 24.912L11.176 27l-4.843 2.421-4.175-2.088L7 24.913zm5.667 2.833l4.176 2.088L12 32.255l-4.176-2.088 4.843-2.422zm11.666 4.343l-4.509-2.255L24 27.745 28.51 30l-4.177 2.088zM30 29.255L25.49 27l3.843-1.921 4.51 2.254L30 29.255zm4.667-17l-16 8v-1.843l16-8v1.842zm-10.334 1.833l-4.509-2.255L24 9.745 28.51 12l-4.177 2.088zm-1.49.745L18 17.254 13.49 15l4.843-2.421 4.51 2.254zM12 14.254l-4.176-2.087 4.843-2.422 4.176 2.088L12 14.254zm5.333 4.158v1.843l-16-8v-1.843l16 8zm-16 10l16 8v1.843l-16-8v-1.843zm17.334 8l16-8v1.843l-16 8v-1.843zM22.509 9l-4.176 2.088L14.158 9l4.175-2.088L22.51 9zM18 1.412L22.176 3.5l-3.843 1.921-4.175-2.088L18 1.413z" fill="#000"/></svg>