<svg width="25" height="25" fill="none" xmlns="http://www.w3.org/2000/svg"><path d="M25 19.744c0 .32-.06.737-.178 1.252s-.242.92-.372 1.216c-.249.592-.971 1.22-2.167 1.883-1.112.603-2.213.905-3.302.905-.32 0-.63-.02-.932-.062a7.691 7.691 0 01-1.021-.222c-.38-.107-.66-.193-.844-.258a68.495 68.495 0 01-.985-.363 37.397 37.397 0 00-.87-.32 16.08 16.08 0 01-3.107-1.474c-1.516-.935-3.081-2.21-4.697-3.826S3.634 15.294 2.7 13.778a16.082 16.082 0 01-1.474-3.107 37.974 37.974 0 00-.32-.87 69.987 69.987 0 01-.363-.985 12.869 12.869 0 01-.259-.844 7.673 7.673 0 01-.222-1.02A6.84 6.84 0 010 6.018C0 4.93.302 3.83.906 2.717 1.568 1.52 2.196.799 2.788.55c.296-.13.701-.254 1.216-.372C4.519.059 4.936 0 5.256 0c.165 0 .29.018.373.053.213.071.526.521.94 1.35.13.225.308.544.533.958.225.415.432.79.622 1.128.19.337.373.654.55.95.036.047.14.195.31.444.172.248.3.458.383.63.082.172.124.34.124.506 0 .237-.169.533-.506.888-.337.355-.704.68-1.101.977-.397.295-.763.61-1.1.94-.338.332-.507.604-.507.817 0 .107.03.24.089.4.06.16.11.281.15.364.042.083.125.225.25.426.124.201.192.314.204.337.9 1.622 1.93 3.013 3.09 4.173 1.16 1.16 2.55 2.19 4.172 3.09.023.011.136.08.337.204.201.124.343.207.426.248.083.042.204.092.364.151.16.06.293.089.4.089.213 0 .485-.169.816-.506.332-.338.646-.704.941-1.101a8.61 8.61 0 01.977-1.1c.355-.338.651-.507.888-.507.165 0 .334.041.506.124.172.083.382.21.63.382.249.172.397.275.444.31.296.178.613.362.95.551.337.19.713.397 1.128.622.414.225.733.402.958.532.829.415 1.279.728 1.35.942a.992.992 0 01.053.372z" fill="#FFF4DE"/></svg>