<svg width="40" height="40" fill="none" xmlns="http://www.w3.org/2000/svg"><g fill="#000"><path d="M10.712 23.248h2.427v-6.652a6.148 6.148 0 00-.923.288 4.062 4.062 0 00-.8.43L10.35 15.79a8.02 8.02 0 011.196-.622 8.03 8.03 0 011.238-.41c.419-.105.838-.18 1.257-.226.424-.046.846-.068 1.265-.068l-.007.013h.007v8.77h2.318v1.901h-6.912v-1.9zm8.368-2.283l6.248-6.501h2.167v6.5h2.303v1.9h-2.303v2.284h-2.167v-2.283h-6.262l.014-1.9zm6.248 0v-3.76l-3.65 3.76h3.65z"/><path fill-rule="evenodd" clip-rule="evenodd" d="M13.961 8.063c-10.045 3.653-11.732 21.41 3.464 26.16l-.597 1.908c-16.866-5.27-15.547-25.585-3.55-29.947l.683 1.88zm8.86 26.165c14.212-4.737 14.096-20.655 4.33-26.236l.991-1.737c11.274 6.442 11.158 24.589-4.688 29.87l-.632-1.897z"/><circle cx="20.092" cy="35.148" r="1"/><path fill-rule="evenodd" clip-rule="evenodd" d="M38 20c0 9.941-8.059 18-18 18S2 29.941 2 20 10.059 2 20 2s18 8.059 18 18zm2 0c0 11.046-8.954 20-20 20S0 31.046 0 20 8.954 0 20 0s20 8.954 20 20z"/></g></svg>