<svg width="20" height="20" fill="none" xmlns="http://www.w3.org/2000/svg"><path fill-rule="evenodd" clip-rule="evenodd" d="M10 15.185a5.185 5.185 0 100-10.37 5.185 5.185 0 000 10.37zM6.981 10a2.978 2.978 0 012.974-2.974A2.977 2.977 0 0112.93 10a2.977 2.977 0 01-2.974 2.974A2.978 2.978 0 016.981 10z" fill="#A98567"/><path d="M16.667 4.63a1.296 1.296 0 11-2.593 0 1.296 1.296 0 012.593 0z" fill="#A98567"/><path fill-rule="evenodd" clip-rule="evenodd" d="M5.185 0A5.185 5.185 0 000 5.185v9.63A5.185 5.185 0 005.185 20h9.63A5.185 5.185 0 0020 14.815v-9.63A5.185 5.185 0 0014.815 0h-9.63zm-.37 2.222a2.593 2.593 0 00-2.593 2.593v10.37a2.593 2.593 0 002.593 2.593h10.37a2.593 2.593 0 002.593-2.593V4.815a2.593 2.593 0 00-2.593-2.593H4.815z" fill="#A98567"/></svg>