<svg width="182" height="70" fill="none" xmlns="http://www.w3.org/2000/svg"><path d="M0 56.198v-22.07h15.022v4.136H5.36v5.26h8.34v4.203H5.36v8.47H0zm84.034 0v-22.07h5.36v8.934h8.107v-8.934h5.327v22.07h-5.327v-8.769h-8.107v8.769h-5.36zm29.437.496c-2.823 0-4.952-.75-6.386-2.25-1.411-1.522-2.117-3.75-2.117-6.684 0-3.154.717-5.415 2.151-6.783 1.455-1.39 3.573-2.085 6.352-2.085 1.875 0 3.442.32 4.699.96 1.279.618 2.239 1.577 2.879 2.879.661 1.301.992 2.978.992 5.03 0 2.933-.739 5.16-2.217 6.683-1.478 1.5-3.595 2.25-6.353 2.25zm0-3.938c.817 0 1.489-.187 2.019-.562.551-.397.959-.96 1.224-1.688.287-.75.43-1.665.43-2.746 0-1.235-.143-2.206-.43-2.912-.265-.728-.673-1.246-1.224-1.555-.552-.33-1.224-.496-2.019-.496-.838 0-1.522.165-2.051.496-.529.331-.926.86-1.191 1.588-.243.706-.364 1.666-.364 2.88 0 1.676.287 2.933.86 3.771.596.816 1.511 1.224 2.746 1.224zm18.189 3.938c-1.544 0-2.912-.243-4.103-.728-1.191-.485-2.118-1.224-2.78-2.217-.661-1.015-.992-2.327-.992-3.937V39.455h4.93v9.96c0 1.058.231 1.852.695 2.382.485.507 1.246.76 2.283.76 1.059 0 1.82-.253 2.283-.76.463-.53.695-1.324.695-2.383v-9.959h4.632v10.357c0 2.382-.684 4.125-2.051 5.228-1.368 1.102-3.232 1.654-5.592 1.654zm15.208 0c-1.192 0-2.217-.132-3.078-.397a23.196 23.196 0 01-2.382-.827v-4.335c.463.309.982.629 1.555.96a9.633 9.633 0 001.886.76 8.149 8.149 0 002.217.299c.794 0 1.346-.133 1.654-.398.331-.286.497-.628.497-1.025 0-.375-.166-.673-.497-.894-.33-.242-.761-.44-1.29-.595a26.842 26.842 0 00-1.687-.43 8.792 8.792 0 01-1.589-.497 5.212 5.212 0 01-1.422-.96 4.653 4.653 0 01-1.026-1.455c-.243-.596-.364-1.313-.364-2.15 0-1.082.209-1.975.628-2.681a5.057 5.057 0 011.655-1.754 6.768 6.768 0 012.217-.926 8.493 8.493 0 012.316-.265c1.368.044 2.449.199 3.243.463a9.621 9.621 0 012.217.96v3.871a36.38 36.38 0 00-2.25-1.158c-.728-.375-1.567-.562-2.515-.562-.86 0-1.478.132-1.853.397-.375.264-.563.617-.563 1.059 0 .419.122.75.364.992.265.243.607.441 1.026.596.419.132.882.265 1.39.397.551.132 1.114.298 1.687.496a5.733 5.733 0 011.655.794c.529.331.948.805 1.257 1.423.331.596.496 1.39.496 2.382-.022 1.346-.386 2.427-1.091 3.243-.706.794-1.622 1.368-2.747 1.72-1.103.331-2.305.497-3.606.497zm17.582 0c-1.676 0-3.165-.342-4.467-1.026a7.667 7.667 0 01-3.011-2.978c-.705-1.301-1.058-2.845-1.058-4.632 0-2.912.716-5.162 2.15-6.75 1.456-1.61 3.53-2.416 6.221-2.416 1.853 0 3.342.397 4.467 1.192 1.147.794 1.985 1.952 2.515 3.474.529 1.522.783 3.375.761 5.559h-12.739l-.53-3.144h9.199l-.728 1.556c-.022-1.787-.276-3.045-.761-3.773-.486-.727-1.28-1.092-2.383-1.092a3.18 3.18 0 00-1.687.464c-.485.309-.871.827-1.158 1.555-.265.706-.397 1.687-.397 2.945 0 1.588.375 2.812 1.125 3.673.772.86 1.996 1.29 3.673 1.29a8.36 8.36 0 001.819-.199c.618-.154 1.192-.33 1.721-.529.529-.199.982-.375 1.357-.53v4.236c-.795.33-1.688.595-2.681.794-.97.22-2.106.33-3.408.33zm-141.094 0c-1.014 0-1.974-.1-2.878-.298-.883-.176-1.666-.474-2.35-.893a4.599 4.599 0 01-1.555-1.754c-.375-.75-.562-1.676-.562-2.78 0-1.036.21-1.94.628-2.712.442-.773 1.103-1.368 1.986-1.787.882-.42 1.996-.629 3.342-.629.75 0 1.478.077 2.184.232a8.598 8.598 0 011.886.628c.573.265 1.025.552 1.356.86l.199 2.383c-.441-.265-.97-.474-1.589-.629a8.165 8.165 0 00-1.985-.231c-1.08 0-1.875.165-2.382.496-.485.309-.728.805-.728 1.489 0 .42.121.794.364 1.125.242.33.562.584.96.761.419.177.849.265 1.29.265 1.125 0 1.908-.078 2.35-.232.462-.154.694-.463.694-.926v-6.155c0-1.014-.331-1.742-.993-2.184-.64-.463-1.555-.694-2.746-.694a8.75 8.75 0 00-2.945.529c-.97.33-1.765.739-2.382 1.224v-4.367c.573-.353 1.456-.684 2.647-.993 1.213-.309 2.57-.463 4.07-.463.53 0 1.114.044 1.753.132a8.79 8.79 0 011.92.496c.64.22 1.224.552 1.753.993a4.8 4.8 0 011.324 1.688c.33.683.496 1.533.496 2.547l-.033 7.908c0 .949-.32 1.721-.96 2.317-.64.573-1.566.992-2.78 1.257-1.19.265-2.635.397-4.334.397zm18.294 0c-.926 0-1.853-.066-2.78-.199a9.519 9.519 0 01-2.48-.628c-.729-.331-1.313-.772-1.755-1.324-.44-.573-.661-1.312-.661-2.217V33.267h4.83V42.4l-.926-1.555a4.086 4.086 0 011.522-1.092 7.489 7.489 0 011.886-.596c.64-.11 1.17-.165 1.588-.165 2.471 0 4.346.75 5.625 2.25 1.302 1.478 1.953 3.65 1.953 6.518 0 1.677-.221 3.088-.662 4.235-.441 1.148-1.059 2.063-1.853 2.747a7.359 7.359 0 01-2.78 1.489c-1.058.309-2.227.463-3.507.463zm-.066-4.103c.97 0 1.743-.188 2.316-.563a3.23 3.23 0 001.224-1.62c.265-.685.398-1.468.398-2.35 0-1.257-.166-2.261-.497-3.011-.33-.75-.783-1.29-1.356-1.621-.574-.331-1.236-.497-1.986-.497-.441 0-.926.055-1.456.166-.53.11-1.003.286-1.422.53v7.41c0 .398.12.707.364.927.242.22.573.386.992.497.441.088.916.132 1.423.132zm19.399 4.103c-1.676 0-3.165-.342-4.467-1.026a7.664 7.664 0 01-3.01-2.978c-.707-1.301-1.06-2.845-1.06-4.632 0-2.912.717-5.162 2.151-6.75 1.456-1.61 3.53-2.416 6.22-2.416 1.854 0 3.343.397 4.468 1.192 1.147.794 1.985 1.952 2.514 3.474.53 1.522.783 3.375.761 5.559H55.821l-.53-3.144h9.2l-.728 1.556c-.023-1.787-.276-3.045-.761-3.773-.486-.727-1.28-1.092-2.383-1.092a3.18 3.18 0 00-1.687.464c-.486.309-.872.827-1.159 1.555-.264.706-.397 1.687-.397 2.945 0 1.588.376 2.812 1.126 3.673.771.86 1.996 1.29 3.672 1.29.618 0 1.224-.066 1.82-.199.618-.154 1.191-.33 1.72-.529.53-.199.982-.375 1.357-.53v4.236c-.794.33-1.687.595-2.68.794-.97.22-2.106.33-3.408.33zm9.755-.496v-14.99c.31-.264.86-.562 1.655-.893a17.684 17.684 0 012.713-.926 11.62 11.62 0 013.11-.43c1.037 0 1.853.077 2.449.231.595.155 1.048.353 1.356.596v3.606a9.591 9.591 0 00-1.422-.198 23.318 23.318 0 00-1.787-.066 23.18 23.18 0 00-1.754 0 10.62 10.62 0 00-1.39.132v12.938h-4.93z" fill="#FFF4DE"/><path d="M75.645 58.955h-4.99v10.504H182V23.503L126.328 0 70.655 23.503v12.868h4.99v-9.585l50.683-21.403 50.683 21.403V64.47H75.645v-5.515z" fill="#FFF4DE"/></svg>