<svg width="61" height="56" fill="none" xmlns="http://www.w3.org/2000/svg"><path d="M52.759 56h-44.5C3.722 56 .026 52.348 0 47.802V21.66c0-4.555 3.705-8.268 8.233-8.268a.92.92 0 01.92.92l-.01 7.768h12.752l4.152-11.736a4.634 4.634 0 012.452-3.941v-5.08a.92.92 0 01.92-.92h2.364c.508 0 .91.412.91.92v4.984a4.638 4.638 0 012.637 4.037l4.151 11.736h12.367v-7.768c0-.508.403-.92.91-.92 4.529 0 8.216 3.67 8.233 8.198L61 47.758c-.105 4.676-3.565 8.136-8.241 8.241zM30.872 5.851V2.234h-.543v3.617h.543zm-.254 1.83a2.821 2.821 0 00-2.75 2.82 2.83 2.83 0 002.82 2.82c1.56 0 2.82-1.27 2.82-2.82 0-1.62-1.296-2.82-2.89-2.82zm-9.502 22.071c.762.096 1.401.447 1.927 1.007a1.94 1.94 0 01.92-.044c1.838-5.246 3.669-10.492 5.5-15.738a4.667 4.667 0 01-2.514-1.725l-5.833 16.5zm2.75 2.803c.017.122.026.236.026.359a3.204 3.204 0 01-1.594 2.758l-2.811 7.26c-.36.93-1.76.675-1.76-.323l.026-8.443a3.138 3.138 0 01-.254-1.252c0-1.121.586-2.155 1.532-2.724l2.225-6.288H9.143v16.377c-.026.57-.245 1.06-.91 1.06a6.416 6.416 0 000 12.83h44.5c3.555 0 6.437-2.855 6.437-6.41a6.416 6.416 0 00-6.411-6.42.905.905 0 01-.911-.91V23.901H40.13l4.536 12.856c.062.158.07.316.035.473l-1.06 5.544c-.175.92-1.462.999-1.76.114-1.305-3.354-2.584-6.717-3.906-10.063-.114-.263-.272-.368-.753-.149a.905.905 0 01-1.2-.464l-2.908-8.311h-4.843l-2.908 8.311c-.332.753-.937.534-1.497.342zm-3.67 3.52a3.701 3.701 0 01-.63-.166v1.795l.63-1.629zm.5-4.528a1.37 1.37 0 100 2.742 1.37 1.37 0 001.366-1.375c0-.736-.587-1.367-1.367-1.367zm13.732-18.295a4.604 4.604 0 01-2.514 1.725l5.492 15.712c1.2-.28 1.743.307 2.233 1.393.946 2.408 1.874 4.825 2.811 7.243l.42-2.199-8.442-23.874zm-3.74 3.73L28.91 22.08h3.565l-1.787-5.097zM7.322 39.57V15.284a6.42 6.42 0 00-5.5 6.35V42.59a8.228 8.228 0 015.5-3.021zm46.348 0a8.228 8.228 0 015.5 3.021V21.66c0-3.206-2.321-5.92-5.5-6.376V39.57z" fill="#000"/></svg>